<svg width="128" height="70" fill="none" xmlns="http://www.w3.org/2000/svg"><g clip-path="url(#clip0_12238_10092)"><path d="M-0.0888672 58.4211L3.83365 58.7643" stroke="#F88C99"/><path d="M0.639648 52.8857L4.51733 53.5695" stroke="#F88C99"/><path d="M1.84863 47.4348L5.65197 48.4539" stroke="#F88C99"/><path d="M3.52734 42.1101L7.22738 43.4568" stroke="#F88C99"/><path d="M5.66406 36.9519L9.23265 38.616" stroke="#F88C99"/><path d="M8.24219 31.9995L11.6522 33.9683" stroke="#F88C99"/><path d="M11.2422 27.2908L14.4676 29.5492" stroke="#F88C99"/><path d="M14.6406 22.8613L17.6569 25.3923" stroke="#F88C99"/><path d="M18.4121 18.7449L21.1963 21.5291" stroke="#F88C99"/><path d="M22.5293 14.9729L25.0603 17.9892" stroke="#F88C99"/><path d="M26.959 11.5741L29.2174 14.7995" stroke="#F88C99"/><path d="M31.667 8.57422L33.6357 11.9842" stroke="#F88C99"/><path d="M128 58.4211L124.077 58.7643" stroke="white" stroke-opacity="0.08"/><path d="M127.271 52.8857L123.394 53.5695" stroke="white" stroke-opacity="0.08"/><path d="M126.063 47.4348L122.26 48.4539" stroke="white" stroke-opacity="0.08"/><path d="M124.384 42.1101L120.684 43.4568" stroke="white" stroke-opacity="0.08"/><path d="M122.247 36.9519L118.679 38.616" stroke="white" stroke-opacity="0.08"/><path d="M116.67 27.2908L113.444 29.5492" stroke="white" stroke-opacity="0.08"/><path d="M113.27 22.8613L110.254 25.3923" stroke="white" stroke-opacity="0.08"/><path d="M109.498 18.7449L106.714 21.5291" stroke="white" stroke-opacity="0.08"/><path d="M105.383 14.9729L102.852 17.9892" stroke="white" stroke-opacity="0.08"/><path d="M100.953 11.5741L98.6943 14.7995" stroke="white" stroke-opacity="0.08"/><path d="M96.2441 8.57422L94.2754 11.9842" stroke="white" stroke-opacity="0.08"/><path d="M91.291 5.99622L89.627 9.5648" stroke="white" stroke-opacity="0.08"/><path d="M86.1328 3.85962L84.7861 7.55966" stroke="white" stroke-opacity="0.08"/><path d="M80.8082 2.18066L79.7891 5.984" stroke="white" stroke-opacity="0.08"/><path d="M75.3576 0.97229L74.6738 4.84997" stroke="white" stroke-opacity="0.08"/><path d="M69.8227 0.24353L69.4795 4.16605" stroke="white" stroke-opacity="0.08"/><path d="M64.2441 0V3.9375" stroke="white" stroke-opacity="0.08"/><path d="M53.1309 0.97229L53.8146 4.84997" stroke="white" stroke-opacity="0.08"/><path d="M47.6797 2.18066L48.6988 5.984" stroke="white" stroke-opacity="0.08"/><path d="M42.3555 3.85962L43.7022 7.55966" stroke="white" stroke-opacity="0.08"/><path d="M37.1973 5.99622L38.8613 9.5648" stroke="white" stroke-opacity="0.08"/><path d="M58.666 0.24353L59.0092 4.16605" stroke="white" stroke-opacity="0.08"/><path d="M119.669 31.9995L116.259 33.9683" stroke="white" stroke-opacity="0.08"/><path d="M116.595 61.22C115.986 49.3289 111.495 38.4633 104.364 29.8661" stroke="white" stroke-opacity="0.08" stroke-width="5" stroke-linecap="round"/><path d="M99.2472 24.4972C93.5719 19.3106 86.775 15.3307 79.2627 12.9637" stroke="white" stroke-opacity="0.08" stroke-width="5" stroke-linecap="round"/><path d="M55.2891 11.0759C57.8599 10.6965 60.4904 10.5 63.1667 10.5C66.1911 10.5 69.157 10.751 72.0445 11.2332" stroke="white" stroke-opacity="0.08" stroke-width="5" stroke-linecap="round"/><path d="M27.6602 23.9804C33.4477 18.8417 40.3576 14.9394 47.976 12.6875" stroke="#F44E61" stroke-width="5" stroke-linecap="round"/><path d="M9.74121 61.1536C10.3756 49.0521 15.0313 38.0158 22.3972 29.3561" stroke="#F44E61" stroke-width="5" stroke-linecap="round"/></g><defs><clipPath id="clip0_12238_10092"><rect width="128" height="70" fill="white"/></clipPath></defs></svg>