<svg width="24" height="24" viewBox="0 0 24 24" fill="none" xmlns="http://www.w3.org/2000/svg">
<path d="M12 6H11C10.4477 6 10 6.44772 10 7V17C10 17.5523 10.4477 18 11 18H12M12 6H13C13.5523 6 14 6.44772 14 7V17C14 17.5523 13.5523 18 13 18H12M12 6V3M12 18V21M5 13H4C3.44772 13 3 13.4477 3 14V17C3 17.5523 3.44772 18 4 18H5M5 13H6C6.55228 13 7 13.4477 7 14V17C7 17.5523 6.55228 18 6 18H5M5 13V10M5 18V21M19 6H18C17.4477 6 17 6.44772 17 7V10C17 10.5523 17.4477 11 18 11H19M19 6H20C20.5523 6 21 6.44772 21 7V10C21 10.5523 20.5523 11 20 11H19M19 6V3M19 11V14" stroke="var(--icon-stroke)" stroke-width="var(--icon-stroke-width)" stroke-linecap="round"/>
</svg>
