<svg width="24" height="24" viewBox="0 0 24 24" fill="none" xmlns="http://www.w3.org/2000/svg">
<path d="M3.04999 13C3.27408 15.2 4.30025 17.2404 5.93272 18.732C7.56519 20.2237 9.68968 21.0621 11.9009 21.0874C14.112 21.1126 16.2551 20.3229 17.9213 18.869C19.5874 17.415 20.6599 15.3985 20.9342 13.2043C21.2084 11.01 20.6653 8.7916 19.4083 6.97224C18.1514 5.15289 16.2686 3.85997 14.1193 3.34016C11.9699 2.82034 9.7044 3.11003 7.75498 4.15394C5.80557 5.19785 4.30871 6.92292 3.54999 9.00001M3.04999 4.00001V9.00001H8.04999M12 8.00002V12L14 14" stroke="var(--icon-stroke)" stroke-width="var(--icon-stroke-width)" stroke-linecap="round" stroke-linejoin="round"/>
</svg>
