<svg width="24" height="24" viewBox="0 0 24 24" fill="none" xmlns="http://www.w3.org/2000/svg">
<path d="M20.9451 13C20.4476 17.5 16.6326 21 12 21C8.46628 21 5.40823 18.9634 3.93552 16M3.93552 16H6.5M3.93552 16H3.05493V19M3.05493 11C3.55238 6.50005 7.36745 3 12 3C15.5337 3 18.5918 5.03656 20.0645 8M20.0645 8H17.5M20.0645 8H20.9451V5M10 12H12C13.1046 12 14 11.1046 14 10C14 8.89543 13.1046 8 12 8M10 12V8H12M10 12H13C14.1046 12 15 12.8954 15 14C15 15.1046 14.1046 16 13 16H12M10 12V16H12M12 8V6M12 16V18" stroke="var(--icon-stroke)" stroke-width="var(--icon-stroke-width)" stroke-linecap="round" stroke-linejoin="round"/>
</svg>
