<svg width="24" height="24" viewBox="0 0 24 24" fill="none" xmlns="http://www.w3.org/2000/svg">
<path d="M12 22C17.5228 22 22 17.5228 22 12C22 6.47715 17.5228 2 12 2C6.47715 2 2 6.47715 2 12C2 17.5228 6.47715 22 12 22Z" fill="url(#paint0_linear_12868_13695)"/>
<path d="M8.7691 12.731L9.95552 16.0149C9.95552 16.0149 10.1039 16.3221 10.2627 16.3221C10.4215 16.3221 12.7839 13.8644 12.7839 13.8644L15.411 8.79028L8.81144 11.8834L8.7691 12.731Z" fill="#C8DAEA"/>
<path d="M10.3422 13.5732L10.1144 15.9937C10.1144 15.9937 10.0191 16.7353 10.7606 15.9937C11.5021 15.252 12.2118 14.6801 12.2118 14.6801" fill="#A9C6D8"/>
<path d="M8.79049 12.8482L6.34999 12.053C6.34999 12.053 6.05832 11.9347 6.15224 11.6663C6.17157 11.611 6.21057 11.5639 6.32724 11.483C6.86799 11.1061 16.3361 7.70301 16.3361 7.70301C16.3361 7.70301 16.6034 7.61293 16.7611 7.67285C16.8001 7.68492 16.8352 7.70714 16.8628 7.73723C16.8904 7.76732 16.9095 7.8042 16.9182 7.8441C16.9352 7.91457 16.9423 7.98707 16.9393 8.05951C16.9386 8.12218 16.931 8.18026 16.9252 8.27135C16.8676 9.20176 15.1419 16.1458 15.1419 16.1458C15.1419 16.1458 15.0387 16.5521 14.6687 16.566C14.5778 16.5689 14.4873 16.5536 14.4024 16.5207C14.3176 16.4879 14.2403 16.4384 14.175 16.375C13.4491 15.7506 10.9401 14.0644 10.3857 13.6936C10.3731 13.6851 10.3626 13.674 10.3548 13.661C10.3469 13.6481 10.3419 13.6336 10.3402 13.6186C10.3324 13.5795 10.3749 13.5311 10.3749 13.5311C10.3749 13.5311 14.7437 9.64776 14.86 9.2401C14.869 9.20851 14.835 9.19293 14.7893 9.20676C14.4992 9.31351 9.46899 12.4901 8.91382 12.8407C8.87386 12.8528 8.83162 12.8553 8.79049 12.8482Z" fill="white"/>
<defs>
<linearGradient id="paint0_linear_12868_13695" x1="12" y1="22" x2="12" y2="2" gradientUnits="userSpaceOnUse">
<stop stop-color="#0E97E1"/>
<stop offset="1" stop-color="#2AABF1"/>
</linearGradient>
</defs>
</svg>
