<svg width="24" height="24" viewBox="0 0 24 24" fill="none" xmlns="http://www.w3.org/2000/svg">
<g clip-path="url(#clip0_12072_5080)">
<path d="M10.2929 5.22184L5.34315 10.1716C3.78105 11.7337 3.78115 14.2664 5.34324 15.8285C5.82596 16.3113 6.29166 16.777 6.75736 17.2427M10.2929 5.22184L8.87868 3.80763L11.7071 6.63606M10.2929 5.22184L11.7071 6.63606M18.7782 13.7071L13.8284 18.6569C12.2663 20.219 9.73358 20.2189 8.17148 18.6568C7.68877 18.1741 7.22306 17.7084 6.75736 17.2427M18.7782 13.7071L20.1924 15.1213M18.7782 13.7071L17.364 12.2929M11.7071 6.63606L15.2426 3.10052M11.7071 6.63606L17.364 12.2929M17.364 12.2929L20.8995 8.75738M6.75736 17.2427L2.80761 21.1924" stroke="var(--icon-stroke)" stroke-width="var(--icon-stroke-width)" stroke-linecap="round" stroke-linejoin="round"/>
</g>
<defs>
<clipPath id="clip0_12072_5080">
<rect width="24" height="24" fill="white"/>
</clipPath>
</defs>
</svg>
