<svg width="24" height="24" viewBox="0 0 24 24" fill="none" xmlns="http://www.w3.org/2000/svg">
<path d="M8.56 3.69C7.46808 4.14199 6.47587 4.80459 5.64 5.64M3.69 8.56C3.23656 9.6503 3.0021 10.8192 3 12M3.69 15.44C4.14199 16.5319 4.80459 17.5241 5.64 18.36M8.56 20.31C9.6503 20.7634 10.8192 20.9979 12 21M15.44 20.31C16.5319 19.858 17.5241 19.1954 18.36 18.36M20.31 15.44C20.7634 14.3497 20.9979 13.1808 21 12M20.31 8.56C19.858 7.46808 19.1954 6.47587 18.36 5.64M15.44 3.69C14.3497 3.23656 13.1808 3.0021 12 3M10 12H12C13.1046 12 14 11.1046 14 10C14 8.89543 13.1046 8 12 8M10 12V8H12M10 12H13C14.1046 12 15 12.8954 15 14C15 15.1046 14.1046 16 13 16H12M10 12V16H12M12 8V6M12 16V18" stroke="var(--icon-stroke)" stroke-width="var(--icon-stroke-width)" stroke-linecap="round" stroke-linejoin="round"/>
</svg>
