<svg width="24" height="24" viewBox="0 0 24 24" fill="none" xmlns="http://www.w3.org/2000/svg">
<path d="M10.5 10.6923L7.53553 13.6567L6.12132 12.2425C5.7308 11.852 5.09763 11.852 4.70711 12.2425L3.29289 13.6567C2.90237 14.0473 2.90237 14.6804 3.29289 15.0709L4.70711 16.4852L3.29289 17.8994C2.90237 18.2899 2.90237 18.9231 3.29289 19.3136L4.70711 20.7278C5.09763 21.1183 5.7308 21.1183 6.12132 20.7278L13.3491 13.5M11.1426 6.89996C11.343 6.00737 11.7906 5.15907 12.4853 4.46434C14.4379 2.51172 17.6037 2.51172 19.5563 4.46434C21.509 6.41697 21.509 9.58279 19.5563 11.5354C18.8616 12.2301 18.0133 12.6777 17.1207 12.8781M3.5 3.5L20.4706 20.4706" stroke="var(--icon-stroke)" stroke-width="var(--icon-stroke-width)" stroke-linecap="round" stroke-linejoin="round"/>
<path d="M15.3137 8.70698C14.9232 8.31646 14.9232 7.6833 15.3137 7.29277C15.7042 6.90225 16.3374 6.90225 16.7279 7.29277C17.1184 7.6833 17.1184 8.31646 16.7279 8.70698C16.3374 9.09751 15.7042 9.09751 15.3137 8.70698Z" stroke="var(--icon-stroke)" stroke-width="var(--icon-stroke-width)" stroke-linecap="round"/>
</svg>
