<svg width="24" height="24" viewBox="0 0 24 24" fill="none" xmlns="http://www.w3.org/2000/svg">
<path d="M4 14V11C4 8.87827 4.84285 6.84344 6.34315 5.34315C7.84344 3.84285 9.87827 3 12 3C14.1217 3 16.1566 3.84285 17.6569 5.34315C19.1571 6.84344 20 8.87827 20 11V14M18 21H13M4 13C4 12.4696 4.21071 11.9609 4.58579 11.5858C4.96086 11.2107 5.46957 11 6 11H7C7.53043 11 8.03914 11.2107 8.41421 11.5858C8.78929 11.9609 9 12.4696 9 13V16C9 16.5304 8.78929 17.0391 8.41421 17.4142C8.03914 17.7893 7.53043 18 7 18H6C5.46957 18 4.96086 17.7893 4.58579 17.4142C4.21071 17.0391 4 16.5304 4 16V13ZM15 13C15 12.4696 15.2107 11.9609 15.5858 11.5858C15.9609 11.2107 16.4696 11 17 11H18C18.5304 11 19.0391 11.2107 19.4142 11.5858C19.7893 11.9609 20 12.4696 20 13V16C20 16.5304 19.7893 17.0391 19.4142 17.4142C19.0391 17.7893 18.5304 18 18 18H17C16.4696 18 15.9609 17.7893 15.5858 17.4142C15.2107 17.0391 15 16.5304 15 16V13Z" stroke="var(--icon-stroke)" stroke-width="var(--icon-stroke-width)" stroke-linecap="round" stroke-linejoin="round"/>
</svg>
