<svg width="20" height="20" viewBox="0 0 20 20" fill="none" xmlns="http://www.w3.org/2000/svg">
<path d="M12.8333 4.66676L15.3333 7.16676M16.4875 5.98759C16.8157 5.65938 17.0001 5.21424 17.0001 4.75009C17.0001 4.28594 16.8157 3.84079 16.4875 3.51259C16.1593 3.18438 15.7142 3 15.25 3C14.7858 3 14.3407 3.18438 14.0125 3.51259L7 10.5001V13.0001H9.5L16.4875 5.98759Z" stroke="var(--icon-stroke)" stroke-width="var(--icon-stroke-width)" stroke-linecap="round" stroke-linejoin="round"/>
<path d="M5.5 6H4.66667C4.22464 6 3.80072 6.17559 3.48816 6.48816C3.17559 6.80072 3 7.22464 3 7.66667V15.1667C3 15.6087 3.17559 16.0326 3.48816 16.3452C3.80072 16.6577 4.22464 16.8333 4.66667 16.8333H12.1667C12.6087 16.8333 13.0326 16.6577 13.3452 16.3452C13.6577 16.0326 13.8333 15.6087 13.8333 15.1667V14.3333" stroke="var(--icon-stroke)" stroke-width="var(--icon-stroke-width)" stroke-linecap="round" stroke-linejoin="round"/>
</svg>
