<svg width="24" height="24" viewBox="0 0 24 24" fill="none" xmlns="http://www.w3.org/2000/svg">
<path d="M2.03999 12C2.03999 6.477 6.51599 2 12.04 2C17.562 2 22.04 6.477 22.04 12C22.04 17.523 17.562 22 12.04 22C6.51599 22 2.03999 17.523 2.03999 12Z" fill="#F67484"/>
<path d="M13.921 7.606H12.997C11.303 7.606 10.412 8.464 10.412 9.729C10.412 11.159 11.028 11.829 12.293 12.688L13.338 13.392L10.335 17.879H8.09099L10.786 13.865C9.23599 12.754 8.36599 11.675 8.36599 9.85C8.36599 7.562 9.96099 6 12.986 6H15.989V17.868H13.921V7.606Z" fill="white"/>
</svg>
