<svg width="24" height="24" viewBox="0 0 24 24" fill="none" xmlns="http://www.w3.org/2000/svg">
<path d="M4.96447 4.46447C3.01184 6.41709 3.01184 9.58291 4.96447 11.5355C6.41426 12.9853 8.53288 13.3587 10.3271 12.6556L13.8033 16.1317L11.682 18.253L14.5104 21.0815L16.6317 18.9602L18.0459 20.3744L20.8744 17.5459L13.1556 9.82713C13.8587 8.03288 13.4853 5.91426 12.0355 4.46447C10.0829 2.51184 6.91709 2.51184 4.96447 4.46447Z" stroke="var(--icon-stroke)" stroke-width="var(--icon-stroke-width)" stroke-linejoin="round"/>
<path d="M9.20711 8.70711C8.81658 9.09763 8.18342 9.09763 7.79289 8.70711C7.40237 8.31658 7.40237 7.68342 7.79289 7.29289C8.18342 6.90237 8.81658 6.90237 9.20711 7.29289C9.59763 7.68342 9.59763 8.31658 9.20711 8.70711Z" stroke="var(--icon-stroke)" stroke-width="var(--icon-stroke-width)" stroke-linejoin="round"/>
</svg>
