<svg width="20" height="20" viewBox="0 0 20 20" fill="none" xmlns="http://www.w3.org/2000/svg">
<path d="M10 13.8889V13.8972M10 11.1666C9.98569 10.9142 10.0538 10.6639 10.1941 10.4534C10.3344 10.243 10.5392 10.0839 10.7778 9.99998C11.0701 9.88818 11.3325 9.71005 11.5443 9.47961C11.7561 9.24917 11.9116 8.9727 11.9984 8.67199C12.0852 8.37127 12.101 8.05452 12.0446 7.74665C11.9882 7.43878 11.8611 7.14822 11.6733 6.89782C11.4855 6.64743 11.2421 6.44404 10.9623 6.30368C10.6826 6.16332 10.3741 6.08981 10.0611 6.08894C9.74809 6.08807 9.43917 6.15987 9.15864 6.29868C8.87812 6.43749 8.63364 6.63952 8.44445 6.88887M3 10C3 10.9193 3.18106 11.8295 3.53284 12.6788C3.88463 13.5281 4.40024 14.2997 5.05025 14.9497C5.70026 15.5998 6.47194 16.1154 7.32122 16.4672C8.1705 16.8189 9.08075 17 10 17C10.9193 17 11.8295 16.8189 12.6788 16.4672C13.5281 16.1154 14.2997 15.5998 14.9497 14.9497C15.5998 14.2997 16.1154 13.5281 16.4672 12.6788C16.8189 11.8295 17 10.9193 17 10C17 9.08075 16.8189 8.1705 16.4672 7.32122C16.1154 6.47194 15.5998 5.70026 14.9497 5.05025C14.2997 4.40024 13.5281 3.88463 12.6788 3.53284C11.8295 3.18106 10.9193 3 10 3C9.08075 3 8.1705 3.18106 7.32122 3.53284C6.47194 3.88463 5.70026 4.40024 5.05025 5.05025C4.40024 5.70026 3.88463 6.47194 3.53284 7.32122C3.18106 8.1705 3 9.08075 3 10Z" stroke="var(--icon-stroke)" stroke-width="var(--icon-stroke-width)" stroke-linecap="round" stroke-linejoin="round"/>
</svg>
