<svg width="24" height="24" viewBox="0 0 24 24" fill="none" xmlns="http://www.w3.org/2000/svg">
<path d="M13.0339 10.751L8.45659 4.24436C8.40351 4.16877 8.33336 4.10715 8.25201 4.06464C8.17065 4.02213 8.08045 3.99996 7.98892 4H5.5731C5.4678 4.00014 5.36457 4.02965 5.27471 4.0853C5.18485 4.14095 5.11182 4.2206 5.06363 4.31553C5.01544 4.41045 4.99393 4.51699 5.00147 4.62348C5.00901 4.72997 5.04531 4.8323 5.10638 4.91927L10.9661 13.249M13.0339 10.751L18.8936 19.0807C18.9547 19.1677 18.991 19.27 18.9985 19.3765C19.0061 19.483 18.9846 19.5895 18.9364 19.6845C18.8882 19.7794 18.8152 19.859 18.7253 19.9147C18.6354 19.9704 18.5322 19.9999 18.4269 20H16.0111C15.9196 20 15.8293 19.9779 15.748 19.9354C15.6666 19.8929 15.5965 19.8312 15.5434 19.7556L10.9661 13.249M13.0339 10.751L18.6211 4M10.9661 13.249L5.37895 20" stroke="var(--icon-stroke)" stroke-width="var(--icon-stroke-width)" stroke-linecap="round" stroke-linejoin="round"/>
</svg>
