<svg width="24" height="24" viewBox="0 0 24 24" fill="none" xmlns="http://www.w3.org/2000/svg">
<path d="M7.20341 12C7.62119 8.82842 8.82107 3 12 3C15.1789 3 16.3788 8.82842 16.7973 12" stroke="var(--icon-stroke)" stroke-width="var(--icon-stroke-width)"/>
<path d="M12 12V19C12 19.5304 11.7893 20.0391 11.4142 20.4142C11.0391 20.7893 10.5304 21 10 21C9.46957 21 8.96086 20.7893 8.58579 20.4142C8.21071 20.0391 8 19.5304 8 19M3 12C3 9.61305 3.94821 7.32387 5.63604 5.63604C7.32387 3.94821 9.61305 3 12 3C14.3869 3 16.6761 3.94821 18.364 5.63604C20.0518 7.32387 21 9.61305 21 12H3Z" stroke="var(--icon-stroke)" stroke-width="var(--icon-stroke-width)" stroke-linecap="round" stroke-linejoin="round"/>
</svg>
