<svg width="49" height="48" fill="none" xmlns="http://www.w3.org/2000/svg"><path d="M47.2855 29.8059C44.0797 42.663 31.0561 50.4877 18.1959 47.2815C5.34107 44.076 -2.48451 31.0531 0.722828 18.1968C3.92717 5.33814 16.9508 -2.48728 29.8072 0.71819C42.6665 3.92366 50.4914 16.948 47.2855 29.8059Z" fill="#F19220"/><path d="M34.5865 20.581C35.0643 17.3876 32.6326 15.6708 29.3075 14.5256L30.3861 10.1996L27.7526 9.5434L26.7024 13.7554C26.0101 13.5829 25.299 13.4201 24.5925 13.2589L25.6501 9.01916L23.0181 8.36292L21.9387 12.6874C21.3656 12.5569 20.8031 12.4279 20.257 12.2921L20.26 12.2786L16.6281 11.3719L15.9275 14.1844C15.9275 14.1844 17.8815 14.6321 17.8403 14.6599C18.9069 14.9261 19.0996 15.6318 19.0674 16.1913L17.8387 21.1195C17.9123 21.1383 18.0075 21.1653 18.1125 21.2073C18.0248 21.1855 17.931 21.1615 17.8342 21.1383L16.1121 28.042C15.9816 28.366 15.6508 28.852 14.9052 28.6675C14.9314 28.7057 12.991 28.1897 12.991 28.1897L11.6836 31.2039L15.1107 32.0582C15.7483 32.2179 16.3731 32.3852 16.9882 32.5427L15.8983 36.9181L18.5288 37.5744L19.6082 33.2454C20.3268 33.4404 21.0243 33.6204 21.7069 33.7899L20.6313 38.0986L23.2648 38.7549L24.3547 34.3877C28.8454 35.2374 32.2223 34.8946 33.6437 30.8334C34.7891 27.5635 33.5867 25.6772 31.2239 24.4473C32.9446 24.0505 34.2407 22.9188 34.5865 20.581ZM28.5694 29.0177C27.7556 32.2877 22.2492 30.5199 20.464 30.0767L21.9102 24.28C23.6954 24.7255 29.42 25.6075 28.5694 29.0177ZM29.384 20.5338C28.6414 23.5083 24.0584 21.997 22.5718 21.6265L23.8829 16.3691C25.3696 16.7396 30.1573 17.4311 29.384 20.5338Z" fill="white"/></svg>