<svg width="48" height="48" fill="none" xmlns="http://www.w3.org/2000/svg"><g clip-path="url(#clip0_12238_10106)"><path d="M13.6661 7.13282C17.5846 -2.51065 31.1133 -2.32762 34.7859 7.41881C35.8899 10.353 38.1781 12.6924 41.0325 13.8192C50.4541 17.5027 50.2825 31.2186 40.758 34.6447C37.8577 35.6857 35.5181 37.9736 34.3397 40.8735C30.404 50.557 16.7951 50.3111 13.1856 40.5017C12.0701 37.6133 9.79908 35.2968 6.96747 34.1929C-2.45405 30.5094 -2.28244 16.7934 7.24205 13.3673C10.1423 12.3263 12.482 10.0384 13.6604 7.13854L13.6661 7.13282Z" fill="url(#paint0_linear_12238_10106)"/><path d="M13.9402 7.3559C17.7557 -2.03018 30.9241 -1.85287 34.4936 7.63045C35.5634 10.4903 37.7943 12.7668 40.5744 13.8592C49.7443 17.4455 49.5727 30.7896 40.3113 34.13C37.4854 35.1424 35.2144 37.3673 34.0646 40.1929C30.2319 49.619 16.9892 49.3788 13.4768 39.8325C12.3957 37.0184 10.1819 34.7706 7.42464 33.6896C-1.74519 30.1033 -1.57357 16.7591 7.68778 13.4188C10.5137 12.4064 12.7847 10.1815 13.9345 7.3559H13.9402Z" fill="url(#paint1_linear_12238_10106)"/><path d="M8.11114 13.9107C10.937 12.8983 13.208 10.6734 14.3578 7.84781C17.5956 -0.11406 27.5434 -1.19509 32.6746 4.43313C27.6864 -1.73846 17.2638 -0.823307 13.9402 7.35591C12.7904 10.1815 10.5194 12.4064 7.69355 13.4188C0.0682351 16.17 -1.40191 25.6934 3.43184 30.9784C-0.887074 25.619 0.714642 16.5761 8.11114 13.9107Z" fill="#FFE8AE"/><path d="M13.9068 39.3635C12.9115 36.5723 10.7263 34.3301 7.95185 33.1919C0.126327 29.9946 -0.937671 20.1681 4.58825 15.1004C-1.47539 20.0308 -0.571564 30.3206 7.4599 33.6037C10.2343 34.7477 12.4252 36.9898 13.4149 39.7811C16.1149 47.3139 25.4735 48.761 30.6676 43.9851C25.3991 48.252 16.5153 46.6733 13.8954 39.3692L13.9068 39.3635Z" fill="#FFEDC0"/><path d="M39.8945 33.6381C37.0686 34.6505 34.7976 36.8754 33.6478 39.701C30.4158 47.6629 20.4623 48.7439 15.3311 43.1157C20.3193 49.2873 30.7419 48.3664 34.0654 40.1929C35.2152 37.3673 37.4862 35.1424 40.3121 34.13C47.9374 31.3845 49.4018 21.8554 44.5681 16.5761C48.887 21.9412 47.291 30.9784 39.8945 33.6438V33.6381Z" fill="#826711"/><path opacity="0.3" d="M40.1634 33.9927C37.286 35.0223 34.9693 37.2873 33.7966 40.1586C30.5016 48.252 20.3593 49.3559 15.1309 43.6362C20.2163 49.9107 30.8391 48.9784 34.2256 40.6619C35.3983 37.7906 37.7151 35.5256 40.5924 34.496C48.3607 31.6991 49.8538 22.0156 44.9285 16.639C49.3332 22.0957 47.7029 31.2873 40.1634 33.9984V33.9927Z" fill="#FEE7A2"/><path d="M19.0606 29.6743H15.3252V17.8688H19.0606V29.6743Z" fill="black"/><path d="M25.7306 29.6743H21.9952V17.8688H29.5919C32.5837 17.8688 34.5572 19.3159 34.5572 22.0785C34.5572 24.8411 32.5837 26.2882 29.5919 26.2882H25.7249V29.6743H25.7306ZM29.3974 23.1938C30.3642 23.1938 30.879 22.7477 30.879 22.0785C30.879 21.4093 30.3699 20.9632 29.3974 20.9632H25.7306V23.1996H29.3974V23.1938Z" fill="black"/></g><defs><linearGradient id="paint0_linear_12238_10106" x1="4.58206" y1="12.7896" x2="43.4214" y2="35.215" gradientUnits="userSpaceOnUse"><stop stop-color="#FEE089"/><stop offset="0.6" stop-color="#6A5300"/></linearGradient><linearGradient id="paint1_linear_12238_10106" x1="12.1783" y1="11.9546" x2="40.3022" y2="40.0761" gradientUnits="userSpaceOnUse"><stop stop-color="#F7DC8F"/><stop offset="1" stop-color="#CCA831"/></linearGradient><clipPath id="clip0_12238_10106"><rect width="48" height="48" fill="white" transform="translate(0 0.000305176)"/></clipPath></defs></svg>