<svg width="49" height="48" fill="none" xmlns="http://www.w3.org/2000/svg"><g clip-path="url(#clip0_13095_6204)"><path d="M24.6666 48C37.9215 48 48.6666 37.2548 48.6666 24C48.6666 10.7452 37.9215 0 24.6666 0C11.4118 0 0.666626 10.7452 0.666626 24C0.666626 37.2548 11.4118 48 24.6666 48Z" fill="#23282F"/><path d="M48.1666 24C48.1666 36.9787 37.6453 47.5 24.6666 47.5C11.6879 47.5 1.16663 36.9787 1.16663 24C1.16663 11.0213 11.6879 0.5 24.6666 0.5C37.6453 0.5 48.1666 11.0213 48.1666 24Z" stroke="white" stroke-opacity="0.2"/><path d="M35.3445 11.243H39.7044L30.6212 20.4272C27.331 23.7578 22.0022 23.7578 18.712 20.4272L9.62875 11.243H13.9887L20.892 18.2271C22.9307 20.3061 26.3016 20.3263 28.3806 18.2876C28.4008 18.2674 28.421 18.2472 28.4412 18.2271L35.3445 11.243ZM13.9483 36.7771H9.58838L18.7322 27.5324C22.0224 24.2018 27.3512 24.2018 30.6414 27.5324L39.7852 36.7771H35.4252L28.4816 29.7527C26.4429 27.6737 23.072 27.6535 20.9929 29.6922C20.9727 29.7123 20.9525 29.7325 20.9324 29.7527L13.9483 36.7771Z" fill="white"/></g><defs><clipPath id="clip0_13095_6204"><rect width="48" height="48" fill="white" transform="translate(0.666626)"/></clipPath></defs></svg>