<svg width="282" height="57" fill="none" xmlns="http://www.w3.org/2000/svg"><path d="M77.223 32.299C74.8003 32.299 72.7917 31.5017 71.197 29.907C69.6023 28.297 68.805 26.3113 68.805 23.95C68.805 21.5887 69.6023 19.6107 71.197 18.016C72.7917 16.406 74.8003 15.601 77.223 15.601C78.6797 15.601 80.0213 15.946 81.248 16.636C82.49 17.326 83.456 18.2613 84.146 19.442L81.846 20.776C81.4167 19.9787 80.788 19.35 79.96 18.89C79.1473 18.4147 78.235 18.177 77.223 18.177C75.5057 18.177 74.1103 18.7213 73.037 19.81C71.979 20.8987 71.45 22.2787 71.45 23.95C71.45 25.6213 71.979 27.0013 73.037 28.09C74.1103 29.1787 75.5057 29.723 77.223 29.723C78.235 29.723 79.155 29.493 79.983 29.033C80.811 28.5577 81.432 27.9213 81.846 27.124L84.146 28.435C83.4713 29.6157 82.513 30.5587 81.271 31.264C80.0443 31.954 78.695 32.299 77.223 32.299ZM100.58 32L97.1764 26.135H94.0484V32H91.4034V15.9H97.8434C99.2847 15.9 100.504 16.406 101.5 17.418C102.512 18.4147 103.018 19.6337 103.018 21.075C103.018 22.1023 102.719 23.0453 102.121 23.904C101.539 24.7473 100.772 25.3607 99.8214 25.744L103.478 32H100.58ZM94.0484 18.384V23.766H97.8434C98.5487 23.766 99.1467 23.5053 99.6374 22.984C100.128 22.4627 100.373 21.8263 100.373 21.075C100.373 20.3237 100.128 19.6873 99.6374 19.166C99.1467 18.6447 98.5487 18.384 97.8434 18.384H94.0484ZM122.494 15.9L116.882 25.606V32H114.237V25.606L108.625 15.9H111.638L115.571 23.03L119.481 15.9H122.494ZM135.219 15.9C136.737 15.9 138.002 16.406 139.014 17.418C140.041 18.43 140.555 19.6873 140.555 21.19C140.555 22.6773 140.041 23.9347 139.014 24.962C138.002 25.974 136.737 26.48 135.219 26.48H131.93V32H129.285V15.9H135.219ZM135.219 23.996C136.001 23.996 136.645 23.7353 137.151 23.214C137.657 22.6773 137.91 22.0027 137.91 21.19C137.91 20.3773 137.657 19.7103 137.151 19.189C136.645 18.6523 136.001 18.384 135.219 18.384H131.93V23.996H135.219ZM158.04 15.9V18.43H153.509V32H150.864V18.43H146.31V15.9H158.04ZM177.59 29.884C175.98 31.494 174.009 32.299 171.679 32.299C169.348 32.299 167.37 31.494 165.745 29.884C164.135 28.2587 163.33 26.2807 163.33 23.95C163.33 21.6193 164.135 19.649 165.745 18.039C167.37 16.4137 169.348 15.601 171.679 15.601C174.009 15.601 175.98 16.4137 177.59 18.039C179.215 19.649 180.028 21.6193 180.028 23.95C180.028 26.2807 179.215 28.2587 177.59 29.884ZM167.608 28.09C168.712 29.1787 170.069 29.723 171.679 29.723C173.289 29.723 174.638 29.1787 175.727 28.09C176.831 26.986 177.383 25.606 177.383 23.95C177.383 22.294 176.831 20.9217 175.727 19.833C174.638 18.729 173.289 18.177 171.679 18.177C170.069 18.177 168.712 18.729 167.608 19.833C166.519 20.9217 165.975 22.294 165.975 23.95C165.975 25.606 166.519 26.986 167.608 28.09ZM239.127 31.77C238.789 32.1073 238.383 32.276 237.908 32.276C237.432 32.276 237.026 32.1073 236.689 31.77C236.351 31.4327 236.183 31.0263 236.183 30.551C236.183 30.0757 236.344 29.6693 236.666 29.332C237.003 28.9947 237.417 28.826 237.908 28.826C238.383 28.826 238.789 28.9947 239.127 29.332C239.464 29.6693 239.633 30.0757 239.633 30.551C239.633 31.0263 239.464 31.4327 239.127 31.77ZM255.522 20.5H258.006V32H255.522V30.344C254.587 31.6473 253.245 32.299 251.497 32.299C249.918 32.299 248.569 31.7163 247.449 30.551C246.33 29.3703 245.77 27.9367 245.77 26.25C245.77 24.548 246.33 23.1143 247.449 21.949C248.569 20.7837 249.918 20.201 251.497 20.201C253.245 20.201 254.587 20.845 255.522 22.133V20.5ZM249.289 28.895C249.979 29.585 250.846 29.93 251.888 29.93C252.931 29.93 253.797 29.585 254.487 28.895C255.177 28.1897 255.522 27.308 255.522 26.25C255.522 25.192 255.177 24.318 254.487 23.628C253.797 22.9227 252.931 22.57 251.888 22.57C250.846 22.57 249.979 22.9227 249.289 23.628C248.599 24.318 248.254 25.192 248.254 26.25C248.254 27.308 248.599 28.1897 249.289 28.895ZM268.308 18.315C268.001 18.6217 267.633 18.775 267.204 18.775C266.774 18.775 266.399 18.6217 266.077 18.315C265.77 17.993 265.617 17.6173 265.617 17.188C265.617 16.7587 265.77 16.3907 266.077 16.084C266.383 15.762 266.759 15.601 267.204 15.601C267.648 15.601 268.024 15.762 268.331 16.084C268.637 16.3907 268.791 16.7587 268.791 17.188C268.791 17.6173 268.63 17.993 268.308 18.315ZM265.962 32V20.5H268.446V32H265.962Z" fill="white" fill-opacity="0.87"/><path d="M197.382 32L196.255 28.757H189.401L188.274 32H185.399L191.241 15.9H194.415L200.234 32H197.382ZM190.275 26.273H195.381L192.828 19.005L190.275 26.273ZM212.959 15.9C214.477 15.9 215.742 16.406 216.754 17.418C217.781 18.43 218.295 19.6873 218.295 21.19C218.295 22.6773 217.781 23.9347 216.754 24.962C215.742 25.974 214.477 26.48 212.959 26.48H209.67V32H207.025V15.9H212.959ZM212.959 23.996C213.741 23.996 214.385 23.7353 214.891 23.214C215.397 22.6773 215.65 22.0027 215.65 21.19C215.65 20.3773 215.397 19.7103 214.891 19.189C214.385 18.6523 213.741 18.384 212.959 18.384H209.67V23.996H212.959ZM225.652 15.9H228.297V32H225.652V15.9Z" fill="#AD96F8"/><g clip-path="url(#clip0_12301_825)"><path d="M14.0009 7.7807L6.11567 10.363C3.65514 11.1688 1.98901 13.462 1.98301 16.0511L1.92312 41.8883C1.91708 44.496 3.59601 46.809 6.0772 47.6112L13.924 50.1484L14.0009 7.7807Z" fill="url(#paint0_linear_12301_825)"/><path d="M14.0009 7.7807L6.11567 10.363C3.65514 11.1688 1.98901 13.462 1.98301 16.0511L1.92312 41.8883C1.91708 44.496 3.59601 46.809 6.0772 47.6112L13.924 50.1484L14.0009 7.7807Z" fill="url(#paint1_linear_12301_825)"/><path d="M1.9428 33.6409L42.1468 46.6159L37.2584 53.3443C35.7324 55.4446 33.0286 56.3253 30.5584 55.5265L6.07776 47.6112C3.59657 46.8089 1.91764 44.4959 1.92368 41.8883L1.9428 33.6409Z" fill="url(#paint2_linear_12301_825)"/><path d="M1.9428 33.6409L42.1468 46.6159L37.2584 53.3443C35.7324 55.4446 33.0286 56.3253 30.5584 55.5265L6.07776 47.6112C3.59657 46.8089 1.91764 44.4959 1.92368 41.8883L1.9428 33.6409Z" fill="url(#paint3_linear_12301_825)"/><path d="M22.6885 52.9821L30.5581 55.5266C33.0284 56.3253 35.7321 55.4446 37.2581 53.3443L52.4844 32.3871C54.0104 30.2867 54.0125 27.4432 52.4895 25.3406L47.6377 18.6424L22.6885 52.9821Z" fill="url(#paint4_linear_12301_825)"/><path d="M22.6885 52.9821L30.5581 55.5266C33.0284 56.3253 35.7321 55.4446 37.2581 53.3443L52.4844 32.3871C54.0104 30.2867 54.0125 27.4432 52.4895 25.3406L47.6377 18.6424L22.6885 52.9821Z" fill="url(#paint5_linear_12301_825)"/><path d="M47.5896 39.1245L22.9221 4.85924L30.6703 2.32182C33.1485 1.51026 35.8671 2.39227 37.3968 4.50411L52.4897 25.3406C54.0127 27.4431 54.0106 30.2867 52.4846 32.387L47.5896 39.1245Z" fill="url(#paint6_linear_12301_825)"/><path d="M47.5896 39.1245L22.9221 4.85924L30.6703 2.32182C33.1485 1.51026 35.8671 2.39227 37.3968 4.50411L52.4897 25.3406C54.0127 27.4431 54.0106 30.2867 52.4846 32.387L47.5896 39.1245Z" fill="url(#paint7_linear_12301_825)"/><path d="M1.96393 24.2683L1.98298 16.0511C1.98898 13.462 3.65511 11.1688 6.11564 10.363L30.6698 2.3219C33.1479 1.51034 35.8666 2.39235 37.3963 4.50419L42.2698 11.2323L1.96393 24.2683Z" fill="url(#paint8_linear_12301_825)"/><path d="M1.96393 24.2683L1.98298 16.0511C1.98898 13.462 3.65511 11.1688 6.11564 10.363L30.6698 2.3219C33.1479 1.51034 35.8666 2.39235 37.3963 4.50419L42.2698 11.2323L1.96393 24.2683Z" fill="url(#paint9_linear_12301_825)"/><path d="M6.1157 10.363L14.001 7.78068L13.9703 24.6776L1.96081 25.6441L1.98304 16.0511C1.98904 13.462 3.65517 11.1688 6.1157 10.363Z" fill="url(#paint10_linear_12301_825)"/></g><defs><linearGradient id="paint0_linear_12301_825" x1="7.76355" y1="9.72526" x2="8.25371" y2="35.4208" gradientUnits="userSpaceOnUse"><stop stop-color="#AD96F8"/><stop offset="1" stop-color="#A1C0F9"/></linearGradient><linearGradient id="paint1_linear_12301_825" x1="11.2969" y1="28.3613" x2="8.65822" y2="35.7147" gradientUnits="userSpaceOnUse"><stop stop-opacity="0"/><stop offset="0.665" stop-color="#0C0E10" stop-opacity="0.1"/><stop offset="1" stop-color="#191B1F" stop-opacity="0.2"/></linearGradient><linearGradient id="paint2_linear_12301_825" x1="2.52174" y1="39.9083" x2="27.6327" y2="47.0279" gradientUnits="userSpaceOnUse"><stop stop-color="#C0A1F9"/><stop offset="1" stop-color="#9EE7F9"/></linearGradient><linearGradient id="paint3_linear_12301_825" x1="20.4622" y1="42.4362" x2="27.2282" y2="46.734" gradientUnits="userSpaceOnUse"><stop stop-opacity="0"/><stop offset="0.665" stop-color="#0C0F0F" stop-opacity="0.099"/><stop offset="1" stop-color="#191E1F" stop-opacity="0.2"/></linearGradient><linearGradient id="paint4_linear_12301_825" x1="28.1509" y1="54.8209" x2="43.7272" y2="33.3819" gradientUnits="userSpaceOnUse"><stop stop-color="#9EE7F9"/><stop offset="1" stop-color="#9FF9E7"/></linearGradient><linearGradient id="paint5_linear_12301_825" x1="38.9869" y1="37.3544" x2="44.1317" y2="33.6758" gradientUnits="userSpaceOnUse"><stop stop-opacity="0"/><stop offset="0.67" stop-color="#0D100F" stop-opacity="0.05"/><stop offset="1" stop-color="#191F1E" stop-opacity="0.1"/></linearGradient><linearGradient id="paint6_linear_12301_825" x1="36.9169" y1="12.9829" x2="51.631" y2="33.5619" gradientUnits="userSpaceOnUse"><stop stop-color="#A1C0F9"/><stop offset="1" stop-color="#9FF9E7"/></linearGradient><linearGradient id="paint7_linear_12301_825" x1="35.5201" y1="13.2042" x2="37.3973" y2="18.2763" gradientUnits="userSpaceOnUse"><stop stop-color="#191B1F" stop-opacity="0.2"/><stop offset="0.33" stop-color="#0E0F11" stop-opacity="0.1"/><stop offset="1" stop-opacity="0"/></linearGradient><linearGradient id="paint8_linear_12301_825" x1="14.3463" y1="15.1259" x2="39.1189" y2="6.54884" gradientUnits="userSpaceOnUse"><stop stop-color="#AD96F8"/><stop offset="1" stop-color="#A1C0F9"/></linearGradient><linearGradient id="paint9_linear_12301_825" x1="14.2357" y1="14.4275" x2="20.6319" y2="14.1304" gradientUnits="userSpaceOnUse"><stop stop-color="#1A191F" stop-opacity="0.2"/><stop offset="0.33" stop-color="#0D0C0F" stop-opacity="0.098"/><stop offset="1" stop-opacity="0"/></linearGradient><linearGradient id="paint10_linear_12301_825" x1="7.76358" y1="9.72523" x2="8.25375" y2="35.4207" gradientUnits="userSpaceOnUse"><stop stop-color="#AD96F8"/><stop offset="1" stop-color="#A1C0F9"/></linearGradient><clipPath id="clip0_12301_825"><rect width="56" height="56" fill="white" transform="translate(0 1)"/></clipPath></defs></svg>