<svg width="88" height="96" fill="none" xmlns="http://www.w3.org/2000/svg"><g clip-path="url(#clip0_12301_2196)"><path d="M30.0009 6.7807L22.1157 9.363C19.6551 10.1688 17.989 12.462 17.983 15.0511L17.9231 40.8883C17.9171 43.496 19.596 45.809 22.0772 46.6112L29.924 49.1484L30.0009 6.7807Z" fill="url(#paint0_linear_12301_2196)"/><path d="M30.0009 6.7807L22.1157 9.363C19.6551 10.1688 17.989 12.462 17.983 15.0511L17.9231 40.8883C17.9171 43.496 19.596 45.809 22.0772 46.6112L29.924 49.1484L30.0009 6.7807Z" fill="url(#paint1_linear_12301_2196)"/><path d="M17.9428 32.6409L58.1468 45.6159L53.2584 52.3443C51.7324 54.4446 49.0286 55.3253 46.5584 54.5265L22.0778 46.6112C19.5966 45.8089 17.9176 43.4959 17.9237 40.8883L17.9428 32.6409Z" fill="url(#paint2_linear_12301_2196)"/><path d="M17.9428 32.6409L58.1468 45.6159L53.2584 52.3443C51.7324 54.4446 49.0286 55.3253 46.5584 54.5265L22.0778 46.6112C19.5966 45.8089 17.9176 43.4959 17.9237 40.8883L17.9428 32.6409Z" fill="url(#paint3_linear_12301_2196)"/><path d="M38.6885 51.9821L46.5581 54.5266C49.0284 55.3253 51.7321 54.4446 53.2581 52.3443L68.4844 31.3871C70.0104 29.2867 70.0125 26.4432 68.4895 24.3406L63.6377 17.6424L38.6885 51.9821Z" fill="url(#paint4_linear_12301_2196)"/><path d="M38.6885 51.9821L46.5581 54.5266C49.0284 55.3253 51.7321 54.4446 53.2581 52.3443L68.4844 31.3871C70.0104 29.2867 70.0125 26.4432 68.4895 24.3406L63.6377 17.6424L38.6885 51.9821Z" fill="url(#paint5_linear_12301_2196)"/><path d="M63.5896 38.1245L38.9221 3.85924L46.6703 1.32182C49.1485 0.51026 51.8671 1.39227 53.3968 3.50411L68.4897 24.3406C70.0127 26.4431 70.0106 29.2867 68.4846 31.387L63.5896 38.1245Z" fill="url(#paint6_linear_12301_2196)"/><path d="M63.5896 38.1245L38.9221 3.85924L46.6703 1.32182C49.1485 0.51026 51.8671 1.39227 53.3968 3.50411L68.4897 24.3406C70.0127 26.4431 70.0106 29.2867 68.4846 31.387L63.5896 38.1245Z" fill="url(#paint7_linear_12301_2196)"/><path d="M17.9639 23.2683L17.983 15.0511C17.989 12.462 19.6551 10.1688 22.1156 9.36299L46.6698 1.3219C49.1479 0.51034 51.8666 1.39235 53.3963 3.50419L58.2698 10.2323L17.9639 23.2683Z" fill="url(#paint8_linear_12301_2196)"/><path d="M17.9639 23.2683L17.983 15.0511C17.989 12.462 19.6551 10.1688 22.1156 9.36299L46.6698 1.3219C49.1479 0.51034 51.8666 1.39235 53.3963 3.50419L58.2698 10.2323L17.9639 23.2683Z" fill="url(#paint9_linear_12301_2196)"/><path d="M22.1157 9.36297L30.001 6.78068L29.9703 23.6776L17.9608 24.6441L17.983 15.0511C17.989 12.462 19.6552 10.1688 22.1157 9.36297Z" fill="url(#paint10_linear_12301_2196)"/></g><path d="M8.109 80.117C7.161 80.117 6.375 79.805 5.751 79.181C5.127 78.551 4.815 77.774 4.815 76.85C4.815 75.926 5.127 75.152 5.751 74.528C6.375 73.898 7.161 73.583 8.109 73.583C8.679 73.583 9.204 73.718 9.684 73.988C10.17 74.258 10.548 74.624 10.818 75.086L9.918 75.608C9.75 75.296 9.504 75.05 9.18 74.87C8.862 74.684 8.505 74.591 8.109 74.591C7.437 74.591 6.891 74.804 6.471 75.23C6.057 75.656 5.85 76.196 5.85 76.85C5.85 77.504 6.057 78.044 6.471 78.47C6.891 78.896 7.437 79.109 8.109 79.109C8.505 79.109 8.865 79.019 9.189 78.839C9.513 78.653 9.756 78.404 9.918 78.092L10.818 78.605C10.554 79.067 10.179 79.436 9.693 79.712C9.213 79.982 8.685 80.117 8.109 80.117ZM17.2489 80L15.9169 77.705H14.6929V80H13.6579V73.7H16.1779C16.7419 73.7 17.2189 73.898 17.6089 74.294C18.0049 74.684 18.2029 75.161 18.2029 75.725C18.2029 76.127 18.0859 76.496 17.8519 76.832C17.6239 77.162 17.3239 77.402 16.9519 77.552L18.3829 80H17.2489ZM14.6929 74.672V76.778H16.1779C16.4539 76.778 16.6879 76.676 16.8799 76.472C17.0719 76.268 17.1679 76.019 17.1679 75.725C17.1679 75.431 17.0719 75.182 16.8799 74.978C16.6879 74.774 16.4539 74.672 16.1779 74.672H14.6929ZM25.8236 73.7L23.6276 77.498V80H22.5926V77.498L20.3966 73.7H21.5756L23.1146 76.49L24.6446 73.7H25.8236ZM30.8031 73.7C31.3971 73.7 31.8921 73.898 32.2881 74.294C32.6901 74.69 32.8911 75.182 32.8911 75.77C32.8911 76.352 32.6901 76.844 32.2881 77.246C31.8921 77.642 31.3971 77.84 30.8031 77.84H29.5161V80H28.4811V73.7H30.8031ZM30.8031 76.868C31.1091 76.868 31.3611 76.766 31.5591 76.562C31.7571 76.352 31.8561 76.088 31.8561 75.77C31.8561 75.452 31.7571 75.191 31.5591 74.987C31.3611 74.777 31.1091 74.672 30.8031 74.672H29.5161V76.868H30.8031ZM39.7329 73.7V74.69H37.9599V80H36.9249V74.69H35.1429V73.7H39.7329ZM47.3829 79.172C46.7529 79.802 45.9819 80.117 45.0699 80.117C44.1579 80.117 43.3839 79.802 42.7479 79.172C42.1179 78.536 41.8029 77.762 41.8029 76.85C41.8029 75.938 42.1179 75.167 42.7479 74.537C43.3839 73.901 44.1579 73.583 45.0699 73.583C45.9819 73.583 46.7529 73.901 47.3829 74.537C48.0189 75.167 48.3369 75.938 48.3369 76.85C48.3369 77.762 48.0189 78.536 47.3829 79.172ZM43.4769 78.47C43.9089 78.896 44.4399 79.109 45.0699 79.109C45.6999 79.109 46.2279 78.896 46.6539 78.47C47.0859 78.038 47.3019 77.498 47.3019 76.85C47.3019 76.202 47.0859 75.665 46.6539 75.239C46.2279 74.807 45.6999 74.591 45.0699 74.591C44.4399 74.591 43.9089 74.807 43.4769 75.239C43.0509 75.665 42.8379 76.202 42.8379 76.85C42.8379 77.498 43.0509 78.038 43.4769 78.47ZM71.4627 79.91C71.3307 80.042 71.1717 80.108 70.9857 80.108C70.7997 80.108 70.6407 80.042 70.5087 79.91C70.3767 79.778 70.3107 79.619 70.3107 79.433C70.3107 79.247 70.3737 79.088 70.4997 78.956C70.6317 78.824 70.7937 78.758 70.9857 78.758C71.1717 78.758 71.3307 78.824 71.4627 78.956C71.5947 79.088 71.6607 79.247 71.6607 79.433C71.6607 79.619 71.5947 79.778 71.4627 79.91ZM77.8783 75.5H78.8503V80H77.8783V79.352C77.5123 79.862 76.9873 80.117 76.3033 80.117C75.6853 80.117 75.1573 79.889 74.7193 79.433C74.2813 78.971 74.0623 78.41 74.0623 77.75C74.0623 77.084 74.2813 76.523 74.7193 76.067C75.1573 75.611 75.6853 75.383 76.3033 75.383C76.9873 75.383 77.5123 75.635 77.8783 76.139V75.5ZM75.4393 78.785C75.7093 79.055 76.0483 79.19 76.4563 79.19C76.8643 79.19 77.2033 79.055 77.4733 78.785C77.7433 78.509 77.8783 78.164 77.8783 77.75C77.8783 77.336 77.7433 76.994 77.4733 76.724C77.2033 76.448 76.8643 76.31 76.4563 76.31C76.0483 76.31 75.7093 76.448 75.4393 76.724C75.1693 76.994 75.0343 77.336 75.0343 77.75C75.0343 78.164 75.1693 78.509 75.4393 78.785ZM82.8812 74.645C82.7612 74.765 82.6172 74.825 82.4492 74.825C82.2812 74.825 82.1342 74.765 82.0082 74.645C81.8882 74.519 81.8282 74.372 81.8282 74.204C81.8282 74.036 81.8882 73.892 82.0082 73.772C82.1282 73.646 82.2752 73.583 82.4492 73.583C82.6232 73.583 82.7702 73.646 82.8902 73.772C83.0102 73.892 83.0702 74.036 83.0702 74.204C83.0702 74.372 83.0072 74.519 82.8812 74.645ZM81.9632 80V75.5H82.9352V80H81.9632Z" fill="white" fill-opacity="0.87"/><path d="M55.1277 80L54.6867 78.731H52.0047L51.5637 80H50.4387L52.7247 73.7H53.9667L56.2437 80H55.1277ZM52.3467 77.759H54.3447L53.3457 74.915L52.3467 77.759ZM61.2231 73.7C61.8171 73.7 62.3121 73.898 62.7081 74.294C63.1101 74.69 63.3111 75.182 63.3111 75.77C63.3111 76.352 63.1101 76.844 62.7081 77.246C62.3121 77.642 61.8171 77.84 61.2231 77.84H59.9361V80H58.9011V73.7H61.2231ZM61.2231 76.868C61.5291 76.868 61.7811 76.766 61.9791 76.562C62.1771 76.352 62.2761 76.088 62.2761 75.77C62.2761 75.452 62.1771 75.191 61.9791 74.987C61.7811 74.777 61.5291 74.672 61.2231 74.672H59.9361V76.868H61.2231ZM66.1897 73.7H67.2247V80H66.1897V73.7Z" fill="#AD96F8"/><defs><linearGradient id="paint0_linear_12301_2196" x1="23.7635" y1="8.72526" x2="24.2537" y2="34.4208" gradientUnits="userSpaceOnUse"><stop stop-color="#AD96F8"/><stop offset="1" stop-color="#A1C0F9"/></linearGradient><linearGradient id="paint1_linear_12301_2196" x1="27.2969" y1="27.3613" x2="24.6582" y2="34.7147" gradientUnits="userSpaceOnUse"><stop stop-opacity="0"/><stop offset="0.665" stop-color="#0C0E10" stop-opacity="0.1"/><stop offset="1" stop-color="#191B1F" stop-opacity="0.2"/></linearGradient><linearGradient id="paint2_linear_12301_2196" x1="18.5217" y1="38.9083" x2="43.6327" y2="46.0279" gradientUnits="userSpaceOnUse"><stop stop-color="#C0A1F9"/><stop offset="1" stop-color="#9EE7F9"/></linearGradient><linearGradient id="paint3_linear_12301_2196" x1="36.4622" y1="41.4362" x2="43.2282" y2="45.734" gradientUnits="userSpaceOnUse"><stop stop-opacity="0"/><stop offset="0.665" stop-color="#0C0F0F" stop-opacity="0.099"/><stop offset="1" stop-color="#191E1F" stop-opacity="0.2"/></linearGradient><linearGradient id="paint4_linear_12301_2196" x1="44.1509" y1="53.8209" x2="59.7272" y2="32.3819" gradientUnits="userSpaceOnUse"><stop stop-color="#9EE7F9"/><stop offset="1" stop-color="#9FF9E7"/></linearGradient><linearGradient id="paint5_linear_12301_2196" x1="54.9869" y1="36.3544" x2="60.1317" y2="32.6758" gradientUnits="userSpaceOnUse"><stop stop-opacity="0"/><stop offset="0.67" stop-color="#0D100F" stop-opacity="0.05"/><stop offset="1" stop-color="#191F1E" stop-opacity="0.1"/></linearGradient><linearGradient id="paint6_linear_12301_2196" x1="52.9169" y1="11.9829" x2="67.631" y2="32.5619" gradientUnits="userSpaceOnUse"><stop stop-color="#A1C0F9"/><stop offset="1" stop-color="#9FF9E7"/></linearGradient><linearGradient id="paint7_linear_12301_2196" x1="51.5201" y1="12.2042" x2="53.3973" y2="17.2763" gradientUnits="userSpaceOnUse"><stop stop-color="#191B1F" stop-opacity="0.2"/><stop offset="0.33" stop-color="#0E0F11" stop-opacity="0.1"/><stop offset="1" stop-opacity="0"/></linearGradient><linearGradient id="paint8_linear_12301_2196" x1="30.3463" y1="14.1259" x2="55.1189" y2="5.54884" gradientUnits="userSpaceOnUse"><stop stop-color="#AD96F8"/><stop offset="1" stop-color="#A1C0F9"/></linearGradient><linearGradient id="paint9_linear_12301_2196" x1="30.2357" y1="13.4275" x2="36.6319" y2="13.1304" gradientUnits="userSpaceOnUse"><stop stop-color="#1A191F" stop-opacity="0.2"/><stop offset="0.33" stop-color="#0D0C0F" stop-opacity="0.098"/><stop offset="1" stop-opacity="0"/></linearGradient><linearGradient id="paint10_linear_12301_2196" x1="23.7636" y1="8.72523" x2="24.2537" y2="34.4207" gradientUnits="userSpaceOnUse"><stop stop-color="#AD96F8"/><stop offset="1" stop-color="#A1C0F9"/></linearGradient><clipPath id="clip0_12301_2196"><rect width="56" height="56" fill="white" transform="translate(16)"/></clipPath></defs></svg>