<svg width="128" height="64" viewBox="0 0 128 64" fill="none" xmlns="http://www.w3.org/2000/svg">

<path id="fgi-5" d="M1.36621 53.4943L4.32928 53.9636" stroke="white" stroke-opacity="0.08"></path>
<path id="fgi-10" d="M3.78711 43.7474L6.64028 44.6744" stroke="white" stroke-opacity="0.08"></path>
<path id="fgi-15" d="M7.70215 34.4991L10.3752 35.8611" stroke="white" stroke-opacity="0.08"></path>
<path id="fgi-20" d="M13.0176 25.9772L15.4446 27.7406" stroke="white" stroke-opacity="0.08"></path>
<path id="fgi-25" d="M19.5996 18.3915L21.7209 20.5129" stroke="white" stroke-opacity="0.08"></path>
<path id="fgi-30" d="M27.2871 11.929L29.0505 14.3561" stroke="white" stroke-opacity="0.08"></path>
<path id="fgi-35" d="M35.8906 6.74872L37.2526 9.42174" stroke="white" stroke-opacity="0.08"></path>
<path id="fgi-40" d="M45.1992 2.97809L46.1263 5.83126" stroke="white" stroke-opacity="0.08"></path>
<path id="fgi-45" d="M54.9834 0.709961L55.4527 3.67303" stroke="white" stroke-opacity="0.08"></path>
<path id="fgi-50" d="M65.001 0.000366211L65.001 3.00037" stroke="white" stroke-opacity="0.08"></path>
<path id="fgi-55" d="M75.0074 0.866699L74.5381 3.82977" stroke="white" stroke-opacity="0.08"></path>
<path id="fgi-60" d="M84.7542 3.28754L83.8271 6.14071" stroke="white" stroke-opacity="0.08"></path>
<path id="fgi-65" d="M94.0026 7.20343L92.6406 9.87645" stroke="white" stroke-opacity="0.08"></path>
<path id="fgi-70" d="M102.524 12.5179L100.761 14.9449" stroke="white" stroke-opacity="0.08"></path>
<path id="fgi-75" d="M110.11 19.1L107.988 21.2214" stroke="white" stroke-opacity="0.08"></path>
<path id="fgi-80" d="M116.573 26.7877L114.146 28.551" stroke="white" stroke-opacity="0.08"></path>
<path id="fgi-85" d="M121.752 35.3917L119.079 36.7536" stroke="white" stroke-opacity="0.08"></path>
<path id="fgi-90" d="M125.524 44.7001L122.671 45.6272" stroke="white" stroke-opacity="0.08"></path>
<path id="fgi-95" d="M127.791 54.4838L124.828 54.9531" stroke="white" stroke-opacity="0.08"></path>
<path id="fgi-extream-fear" d="M10.7412 60.1536C11.3756 48.0521 16.0313 37.0158 23.3972 28.3561" stroke="white" stroke-opacity="0.08" stroke-width="5" stroke-linecap="round"></path>
<path id="fgi-fear" d="M28.6602 22.9804C34.4477 17.8417 41.3576 13.9394 48.976 11.6875" stroke="white" stroke-opacity="0.08" stroke-width="5" stroke-linecap="round"></path>
<path id="fgi-neutral" d="M56.2891 10.0759C58.8599 9.69652 61.4904 9.5 64.1667 9.5C67.1911 9.5 70.157 9.75097 73.0445 10.2332" stroke="white" stroke-opacity="0.08" stroke-width="5" stroke-linecap="round"></path>
<path id="fgi-greed" d="M100.247 23.4972C94.5719 18.3106 87.775 14.3307 80.2627 11.9637" stroke="white" stroke-opacity="0.08" stroke-width="5" stroke-linecap="round"></path>
<path id="fgi-extream-greed" d="M117.595 60.22C116.986 48.3289 112.495 37.4633 105.364 28.8661" stroke="white" stroke-opacity="0.08" stroke-width="5" stroke-linecap="round"></path>
</svg>
