<svg width="24" height="24" viewBox="0 0 24 24" fill="none" xmlns="http://www.w3.org/2000/svg">
<rect width="20" height="10" transform="matrix(1 0 0 -1 2 17)" fill="white"/>
<path d="M12.3286 13.56C12.5684 13.64 12.8482 13.68 13.128 13.68C12.8082 13.76 12.4885 13.8 12.1688 13.72V13.8L12.0089 14L11.849 13.8V13.72C11.5293 13.8 11.2095 13.76 10.9297 13.68C11.2095 13.68 11.4493 13.64 11.7291 13.56C11.2894 13.32 10.9697 12.96 10.8098 12.48C10.57 11.76 10.8098 11 11.3694 10.48C10.7699 11.4 10.9697 12.64 11.849 13.28L11.7691 11.76V10.56C11.849 10.52 11.9289 10.44 12.0089 10.36C12.0888 10.44 12.1688 10.52 12.2487 10.56V11.76L12.1688 13.28C13.0481 12.64 13.2479 11.4 12.6484 10.48C13.2079 11 13.4477 11.76 13.2079 12.48C13.0481 12.96 12.7283 13.32 12.3286 13.56ZM13.8075 11.2C13.6076 10.84 13.2479 10.56 12.8482 10.44C13.7275 11.12 13.9274 12.4 13.2479 13.28C13.9673 12.88 14.2071 11.92 13.8075 11.2ZM11.1695 10.44C10.7699 10.56 10.4101 10.84 10.2103 11.2C9.77065 11.96 10.0504 12.88 10.7699 13.32C10.0904 12.4 10.2902 11.12 11.1695 10.44ZM11.6092 10.36C11.7291 10.44 11.9289 10.4 12.0089 10.28C12.0888 10.4 12.2887 10.44 12.4086 10.36C12.5285 10.28 12.5684 10.12 12.5285 10C12.4885 10.16 12.3286 10.24 12.2087 10.2C12.1288 10.2 12.0488 10.16 12.0089 10.08C11.9689 10.16 11.889 10.2 11.809 10.2C11.6891 10.24 11.5293 10.16 11.4893 10C11.4493 10.12 11.4893 10.28 11.6092 10.36Z" fill="#FF0000"/>
<path d="M2 4H22V8H2V4Z" fill="#009900"/>
<path d="M2 8H3V9H2V8Z" fill="#009900"/>
<path d="M4 8H5V9H4V8Z" fill="#009900"/>
<path d="M6 8H7V9H6V8Z" fill="#009900"/>
<path d="M8 8H9V9H8V8Z" fill="#009900"/>
<path d="M10 8H11V9H10V8Z" fill="#009900"/>
<path d="M12 8H13V9H12V8Z" fill="#009900"/>
<path d="M14 8H15V9H14V8Z" fill="#009900"/>
<path d="M16 8H17V9H16V8Z" fill="#009900"/>
<path d="M18 8H19V9H18V8Z" fill="#009900"/>
<path d="M20 8H21V9H20V8Z" fill="#009900"/>
<path d="M2 16H22V20H2V16Z" fill="#FF0000"/>
<path d="M3 15H4V16H3V15Z" fill="#FF0000"/>
<path d="M5 15H6V16H5V15Z" fill="#FF0000"/>
<path d="M7 15H8V16H7V15Z" fill="#FF0000"/>
<path d="M9 15H10V16H9V15Z" fill="#FF0000"/>
<path d="M11 15H12V16H11V15Z" fill="#FF0000"/>
<path d="M13 15H14V16H13V15Z" fill="#FF0000"/>
<path d="M15 15H16V16H15V15Z" fill="#FF0000"/>
<path d="M17 15H18V16H17V15Z" fill="#FF0000"/>
<path d="M19 15H20V16H19V15Z" fill="#FF0000"/>
<path d="M21 15H22V16H21V15Z" fill="#FF0000"/>
<rect x="2.5" y="4.5" width="19" height="15" stroke="black" stroke-opacity="0.12"/>
</svg>
