<svg width="24" height="24" viewBox="0 0 24 24" fill="none" xmlns="http://www.w3.org/2000/svg">
<rect x="2" y="4" width="20" height="16" fill="#FF0000"/>
<path fill-rule="evenodd" clip-rule="evenodd" d="M5.5 9.75L4.03054 10.5225L4.31118 8.88627L3.12236 7.72746L4.76527 7.48873L5.5 6L6.23473 7.48873L7.87764 7.72746L6.68882 8.88627L6.96946 10.5225L5.5 9.75Z" fill="#FFD500"/>
<path fill-rule="evenodd" clip-rule="evenodd" d="M8.11603 5.79904L7.45248 5.77276L7.87695 5.26207L7.69689 4.62288L8.31376 4.86876L8.86603 4.5L8.8228 5.16266L9.34417 5.57394L8.70059 5.7376L8.47055 6.36055L8.11603 5.79904Z" fill="#FFD500"/>
<path fill-rule="evenodd" clip-rule="evenodd" d="M10.3747 8.16625L9.89488 8.62532L9.82238 7.96522L9.23751 7.65072L9.84289 7.37779L9.96126 6.72436L10.4079 7.21578L11.0659 7.12643L10.7366 7.70307L11.0249 8.30129L10.3747 8.16625Z" fill="#FFD500"/>
<path fill-rule="evenodd" clip-rule="evenodd" d="M9.80974 9.61069L9.18868 9.84577L9.37986 9.20982L8.96437 8.6918L9.62827 8.67711L9.99255 8.12187L10.2117 8.74874L10.8523 8.92361L10.3238 9.32573L10.3555 9.98904L9.80974 9.61069Z" fill="#FFD500"/>
<path fill-rule="evenodd" clip-rule="evenodd" d="M8.33441 11.7715L7.67261 11.8263L8.03168 11.2677L7.77506 10.6552L8.4173 10.8241L8.9205 10.3907L8.95836 11.0537L9.52597 11.3984L8.90713 11.6393L8.75472 12.2856L8.33441 11.7715Z" fill="#FFD500"/>
<rect x="2.5" y="4.5" width="19" height="15" stroke="black" stroke-opacity="0.12"/>
</svg>
