<svg width="24" height="24" viewBox="0 0 24 24" fill="none" xmlns="http://www.w3.org/2000/svg">
<rect x="8" y="4" width="8" height="16" fill="#FFD500"/>
<rect x="2" y="4" width="7" height="16" fill="#000099"/>
<rect x="15" y="4" width="7" height="16" fill="#FF0000"/>
<rect x="2" y="4" width="20" height="16" fill="#FF0000"/>
<path d="M7 4H11V20H7V4Z" fill="white"/>
<path d="M2 10H22V14H2V10Z" fill="white"/>
<path d="M9.5 4.5V10.5H8.5V4.5H9.5ZM8.5 11.5H9.5V12.5H8.5V11.5ZM10.5 12.5V11.5H21.5V12.5H10.5ZM8.5 13.5H9.5V19.5H8.5V13.5ZM7.5 11.5V12.5H2.5V11.5H7.5Z" fill="#000099" stroke="#000099"/>
<rect x="2.5" y="4.5" width="19" height="15" stroke="black" stroke-opacity="0.12"/>
</svg>
