<svg width="24" height="24" viewBox="0 0 24 24" fill="none" xmlns="http://www.w3.org/2000/svg">
<rect x="2" y="4" width="20" height="16" fill="#FF0000"/>
<path fill-rule="evenodd" clip-rule="evenodd" d="M11.9628 9.15783C11.6606 9.05549 11.3368 9 11 9C9.34315 9 8 10.3431 8 12C8 13.6569 9.34315 15 11 15C11.3368 15 11.6606 14.9445 11.9628 14.8422C11.3304 15.5579 10.4604 16 9.5 16C7.567 16 6 14.2091 6 12C6 9.79086 7.567 8 9.5 8C10.4604 8 11.3304 8.44205 11.9628 9.15783Z" fill="white"/>
<path fill-rule="evenodd" clip-rule="evenodd" d="M13.8292 13.2351L12.9021 14.1862L12.7111 12.8719L11.5201 12.2841L12.7111 11.6963L12.9021 10.382L13.8292 11.333L15.1382 11.1085L14.5201 12.2841L15.1382 13.4596L13.8292 13.2351Z" fill="white"/>
<rect x="2.5" y="4.5" width="19" height="15" stroke="black" stroke-opacity="0.12"/>
</svg>
