<svg width="24" height="24" viewBox="0 0 24 24" fill="none" xmlns="http://www.w3.org/2000/svg">
<rect x="2" y="15" width="20" height="5" fill="#009900"/>
<rect x="2" y="8" width="20" height="8" fill="white"/>
<circle cx="12" cy="12" r="1.9" stroke="#000099" stroke-width="0.2"/>
<path d="M12.25 10.25V10.7432L12.4387 10.2875L12.9007 10.4789L12.7119 10.9345L13.0607 10.5858L13.4142 10.9393L13.0655 11.2881L13.5211 11.0993L13.7125 11.5613L13.2568 11.75H13.75V12.25H13.2568L13.7125 12.4387L13.5211 12.9007L13.0396 12.7012L13.4049 13.073L13.0483 13.4234L12.683 13.0517L12.874 13.5366L12.4088 13.7199L12.25 13.3168V13.75H11.75V13.2568L11.5613 13.7125L11.0993 13.5211L11.2881 13.0655L10.9393 13.4142L10.5858 13.0607L10.9345 12.7119L10.4789 12.9007L10.2875 12.4387L10.7432 12.25H10.25V11.75H10.7432L10.2875 11.5613L10.4789 11.0993L10.9604 11.2988L10.5951 10.927L10.9517 10.5766L11.317 10.9483L11.126 10.4634L11.5912 10.2801L11.75 10.6832V10.25H12.25Z" stroke="#000099" stroke-width="0.2" stroke-linecap="square"/>
<rect x="2" y="4" width="20" height="5" fill="#FFD500"/>
<rect x="2.5" y="4.5" width="19" height="15" stroke="black" stroke-opacity="0.12"/>
</svg>
