<svg xmlns="http://www.w3.org/2000/svg" xmlns:xlink="http://www.w3.org/1999/xlink"><symbol fill="none" viewBox="0 0 24 24" id="icon-award" xmlns="http://www.w3.org/2000/svg"><path d="M8 5V3h8v2M8 5H3v1a4 4 0 0 0 4 4h1m0-5v5m0 0v0a4 4 0 0 0 4 4v0m4-9h5v1a4 4 0 0 1-4 4h-1m0-5v5m0 0v0a4 4 0 0 1-4 4v0m0 0v7m0 0H8m4 0h4" stroke="var(--icon-stroke)" stroke-width="var(--icon-stroke-width)" stroke-linecap="round" stroke-linejoin="round"/></symbol><symbol fill="none" viewBox="0 0 24 24" id="icon-bell" xmlns="http://www.w3.org/2000/svg"><path d="M9 17v1a3 3 0 0 0 6 0v-1M10 5a2 2 0 1 1 4 0 7 7 0 0 1 4 6v3a4 4 0 0 0 2 3H4a4 4 0 0 0 2-3v-3a7 7 0 0 1 4-6Z" stroke="var(--icon-stroke)" stroke-width="var(--icon-stroke-width)" stroke-linecap="round" stroke-linejoin="round"/></symbol><symbol fill="none" viewBox="0 0 24 24" id="icon-bitcoin" xmlns="http://www.w3.org/2000/svg"><path d="M9 6v6m0-6H7m2 0h1m-1 6h5a3 3 0 1 0 0-6m-5 6h6a3 3 0 1 1 0 6h-1m-5-6v6m5-12h-4m4 0V4M9 18H7m2 0h1m0 0v2m0-2h4m0 0v2M10 6V4" stroke="var(--icon-stroke)" stroke-width="var(--icon-stroke-width)" stroke-linecap="round"/></symbol><symbol fill="none" viewBox="0 0 24 24" id="icon-brand-facebook" xmlns="http://www.w3.org/2000/svg"><circle cx="12" cy="12" r="10" fill="#668EF5"/><path d="M11 21.95V14.8H8.5V12H11V9.8c0-2.5 1.313-3.9 3.613-3.9.7 0 1.5.1 2.2.2v2.55h-1.3c-1.2 0-1.5.6-1.5 1.4V12h2.65l-.45 2.8h-2.2v6.997a10.048 10.048 0 0 1-3.013.154Z" fill="#fff"/></symbol><symbol fill="none" viewBox="0 0 24 24" id="icon-brand-google" xmlns="http://www.w3.org/2000/svg"><path d="M21.6 12.227c0-.709-.064-1.572-.182-2.227H12v4h5.382a4.722 4.722 0 0 1-2.01 3.064v2.518h3.246c1.891-1.746 2.982-4.31 2.982-7.355Z" fill="#668EF5"/><path d="M12 22c2.7 0 4.964-.89 6.618-2.418l-3.245-2.518c-.891.6-2.027.963-3.373.963-2.6 0-4.81-1.754-5.6-4.118H3.073v2.582C4.718 19.755 8.09 22 12 22Z" fill="#0BA835"/><path d="M6.4 13.9c-.2-.6-.318-1.236-.318-1.9 0-.664.118-1.3.318-1.9V7.518H3.073A9.876 9.876 0 0 0 2 12c0 1.618.39 3.136 1.073 4.482l2.59-2.018.737-.564Z" fill="#F2C33A"/><path d="M12 5.982c1.473 0 2.782.509 3.827 1.49l2.864-2.863C16.955 2.991 14.7 2 12 2 8.09 2 4.718 4.245 3.073 7.518L6.4 10.1c.79-2.364 3-4.118 5.6-4.118Z" fill="#F67484"/></symbol><symbol fill="none" viewBox="0 0 24 24" id="icon-brand-telegram" xmlns="http://www.w3.org/2000/svg"><circle cx="12" cy="12" r="10" fill="#15A3F0"/><path d="m8.77 12.731 1.186 3.284s.148.307.307.307 2.52-2.458 2.52-2.458l2.628-5.074-6.6 3.093-.042.848Z" fill="#C8DAEA"/><path d="m10.342 13.573-.228 2.42s-.095.742.647 0c.741-.741 1.45-1.313 1.45-1.313" fill="#A9C6D8"/><path d="m8.79 12.848-2.44-.795s-.292-.118-.198-.387c.02-.055.059-.102.175-.183.541-.377 10.01-3.78 10.01-3.78s.266-.09.424-.03a.23.23 0 0 1 .157.171.78.78 0 0 1 .021.216c0 .062-.008.12-.014.211-.057.93-1.783 7.875-1.783 7.875s-.103.406-.473.42a.677.677 0 0 1-.494-.191c-.726-.624-3.235-2.31-3.79-2.681a.103.103 0 0 1-.045-.075c-.008-.04.035-.088.035-.088s4.369-3.883 4.485-4.29c.009-.032-.025-.048-.07-.034-.29.107-5.321 3.283-5.876 3.634a.268.268 0 0 1-.124.007Z" fill="#fff"/></symbol><symbol fill="none" viewBox="0 0 24 24" id="icon-brand-yandex" xmlns="http://www.w3.org/2000/svg"><path d="M2.04 12c0-5.523 4.476-10 10-10 5.522 0 10 4.477 10 10s-4.478 10-10 10c-5.524 0-10-4.477-10-10Z" fill="#F67484"/><path d="M13.921 7.606h-.924c-1.694 0-2.585.858-2.585 2.123 0 1.43.616 2.1 1.881 2.959l1.045.704-3.003 4.487H8.091l2.695-4.014c-1.55-1.111-2.42-2.19-2.42-4.015 0-2.288 1.595-3.85 4.62-3.85h3.003v11.868h-2.068V7.606Z" fill="#fff"/></symbol><symbol fill="none" viewBox="0 0 24 24" id="icon-candles" xmlns="http://www.w3.org/2000/svg"><path d="M12 6h-1a1 1 0 0 0-1 1v10a1 1 0 0 0 1 1h1m0-12h1a1 1 0 0 1 1 1v10a1 1 0 0 1-1 1h-1m0-12V3m0 15v3m-7-8H4a1 1 0 0 0-1 1v3a1 1 0 0 0 1 1h1m0-5h1a1 1 0 0 1 1 1v3a1 1 0 0 1-1 1H5m0-5v-3m0 8v3M19 6h-1a1 1 0 0 0-1 1v3a1 1 0 0 0 1 1h1m0-5h1a1 1 0 0 1 1 1v3a1 1 0 0 1-1 1h-1m0-5V3m0 8v3" stroke="var(--icon-stroke)" stroke-width="var(--icon-stroke-width)" stroke-linecap="round"/></symbol><symbol fill="none" viewBox="0 0 24 24" id="icon-chart-line" xmlns="http://www.w3.org/2000/svg"><path d="M3 3v16h4m14 0h-2M7 19v2m0-2h4m0 0v2m0-2h4m0 0v2m0-2h4m0 0v2M21 5l-7 7-3-3-4 4m14-8h-3m3 0v3" stroke="var(--icon-stroke)" stroke-width="var(--icon-stroke-width)" stroke-linecap="round" stroke-linejoin="round"/></symbol><symbol fill="none" viewBox="0 0 24 24" id="icon-chart-treemap" xmlns="http://www.w3.org/2000/svg"><path d="M14 4h4a2 2 0 0 1 2 2v8M14 4H6a2 2 0 0 0-2 2v8M14 4v10m0 0h6m-6 0v6m0-6H9m11 0v4a2 2 0 0 1-2 2h-4M4 14v4a2 2 0 0 0 2 2h3m-5-6h5m5 6H9m0-6v6" stroke="var(--icon-stroke)" stroke-width="var(--icon-stroke-width)"/></symbol><symbol fill="none" viewBox="0 0 24 24" id="icon-crown" xmlns="http://www.w3.org/2000/svg"><path d="m12 6 4 6 5-4-2 10H5L3 8l5 4 4-6Z" stroke="var(--icon-stroke)" stroke-width="var(--icon-stroke-width)" stroke-linecap="round" stroke-linejoin="round"/></symbol><symbol fill="none" viewBox="0 0 24 24" id="icon-exit" xmlns="http://www.w3.org/2000/svg"><path d="M13 8V5a2 2 0 0 0-2-2H5a2 2 0 0 0-2 2v14a2 2 0 0 0 2 2h6a2 2 0 0 0 2-2v-3" stroke="var(--icon-stroke)" stroke-width="var(--icon-stroke-width)" stroke-linecap="round"/><path d="M8 12h13m0 0-3-3m3 3-3 3" stroke="var(--icon-stroke)" stroke-width="var(--icon-stroke-width)" stroke-linecap="round" stroke-linejoin="round"/></symbol><symbol fill="none" viewBox="0 0 24 24" id="icon-eye" xmlns="http://www.w3.org/2000/svg"><path d="M12 14a2 2 0 1 0 0-4 2 2 0 0 0 0 4Z" stroke="var(--icon-stroke)" stroke-width="var(--icon-stroke-width)" stroke-linecap="round" stroke-linejoin="round"/><path d="M22 12c-2.667 4.667-6 7-10 7s-7.333-2.333-10-7c2.667-4.667 6-7 10-7s7.333 2.333 10 7Z" stroke="var(--icon-stroke)" stroke-width="var(--icon-stroke-width)" stroke-linecap="round" stroke-linejoin="round"/></symbol><symbol fill="none" viewBox="0 0 24 24" id="icon-eye-slash" xmlns="http://www.w3.org/2000/svg"><path d="m3 3 18 18M10.584 10.587a2 2 0 1 0 2.828 2.83M9.363 5.365A9.466 9.466 0 0 1 12 5c4 0 7.333 2.333 10 7-.778 1.361-1.612 2.524-2.503 3.488m-2.14 1.861C15.726 18.449 13.942 19 12 19c-4 0-7.333-2.333-10-7 1.369-2.395 2.913-4.175 4.632-5.341" stroke="var(--icon-stroke)" stroke-width="var(--icon-stroke-width)" stroke-linecap="round" stroke-linejoin="round"/></symbol><symbol fill="none" viewBox="0 0 24 24" id="icon-grid-4x4" xmlns="http://www.w3.org/2000/svg"><path d="M3 5a2 2 0 0 1 2-2h3a2 2 0 0 1 2 2v3a2 2 0 0 1-2 2H5a2 2 0 0 1-2-2V5ZM3 16a2 2 0 0 1 2-2h3a2 2 0 0 1 2 2v3a2 2 0 0 1-2 2H5a2 2 0 0 1-2-2v-3ZM14 5a2 2 0 0 1 2-2h3a2 2 0 0 1 2 2v3a2 2 0 0 1-2 2h-3a2 2 0 0 1-2-2V5ZM14 16a2 2 0 0 1 2-2h3a2 2 0 0 1 2 2v3a2 2 0 0 1-2 2h-3a2 2 0 0 1-2-2v-3Z" stroke="var(--icon-stroke)" stroke-width="var(--icon-stroke-width)"/></symbol><symbol fill="none" viewBox="0 0 24 24" id="icon-home" xmlns="http://www.w3.org/2000/svg"><path d="m21 11-2-1.778M3 11l2-1.778m0 0L12 3l7 6.222m-14 0V20a1 1 0 0 0 1 1h4m9-11.778V20a1 1 0 0 1-1 1h-4m5-11.778V5m-9 16v-7h4v7m-4 0h4" stroke="var(--icon-stroke)" stroke-width="var(--icon-stroke-width)" stroke-linecap="round" stroke-linejoin="round"/></symbol><symbol fill="none" viewBox="0 0 24 24" id="icon-mail" xmlns="http://www.w3.org/2000/svg"><path d="M21 7a2 2 0 0 0-2-2H5a2 2 0 0 0-2 2m18 0v10a2 2 0 0 1-2 2H5a2 2 0 0 1-2-2V7m18 0-9 6-9-6" stroke="var(--icon-stroke)" stroke-width="var(--icon-stroke-width)" stroke-linecap="round" stroke-linejoin="round"/></symbol><symbol fill="none" viewBox="0 0 24 24" id="icon-money" xmlns="http://www.w3.org/2000/svg"><path d="M18 12h.01M6 12h.01M15 12a3 3 0 1 1-6 0 3 3 0 0 1 6 0ZM5 6h14a2 2 0 0 1 2 2v8a2 2 0 0 1-2 2H5a2 2 0 0 1-2-2V8a2 2 0 0 1 2-2Z" stroke="var(--icon-stroke)" stroke-width="var(--icon-stroke-width)" stroke-linecap="round" stroke-linejoin="round"/></symbol><symbol fill="none" viewBox="0 0 24 24" id="icon-more" xmlns="http://www.w3.org/2000/svg"><path d="M5 13a1 1 0 1 0 0-2 1 1 0 0 0 0 2ZM12 13a1 1 0 1 0 0-2 1 1 0 0 0 0 2ZM19 13a1 1 0 1 0 0-2 1 1 0 0 0 0 2Z" stroke="var(--icon-stroke)" stroke-width="var(--icon-stroke-width)" stroke-linecap="round" stroke-linejoin="round"/></symbol><symbol fill="none" viewBox="0 0 24 24" id="icon-news" xmlns="http://www.w3.org/2000/svg"><path d="M16 6h3a1 1 0 0 1 1 1v11a2 2 0 0 1-2 2" stroke="var(--icon-stroke)" stroke-width="var(--icon-stroke-width)"/><path d="M8 8h4m-4 4h4m-4 4h4" stroke="var(--icon-stroke)" stroke-width="var(--icon-stroke-width)" stroke-linecap="round"/><path d="M16 5a1 1 0 0 0-1-1H5a1 1 0 0 0-1 1v12a3 3 0 0 0 3 3h11a2 2 0 0 1-2-2V5Z" stroke="var(--icon-stroke)" stroke-width="var(--icon-stroke-width)"/></symbol><symbol fill="none" viewBox="0 0 24 24" id="icon-plug" xmlns="http://www.w3.org/2000/svg"><g clip-path="url(#aua)"><path d="m10.293 5.222-4.95 4.95a4 4 0 0 0 0 5.656l1.414 1.415m3.536-12.021L8.879 3.808l2.828 2.828m-1.414-1.414 1.414 1.414m7.071 7.071-4.95 4.95a4 4 0 0 1-5.657 0l-1.414-1.414m12.021-3.536 1.414 1.414m-1.414-1.414-1.414-1.414m-5.657-5.657 3.536-3.535m-3.536 3.535 5.657 5.657m0 0 3.535-3.536M6.758 17.243l-3.95 3.95" stroke="var(--icon-stroke)" stroke-width="var(--icon-stroke-width)" stroke-linecap="round" stroke-linejoin="round"/></g><defs><clipPath id="aua"><path fill="#fff" d="M0 0h24v24H0z"/></clipPath></defs></symbol><symbol fill="none" viewBox="0 0 24 24" id="icon-robot" xmlns="http://www.w3.org/2000/svg"><path d="M12 7H5a2 2 0 0 0-2 2v10a2 2 0 0 0 2 2h14a2 2 0 0 0 2-2V9a2 2 0 0 0-2-2h-7Zm0 0V3M8 13h.01M16 13h.01M10 17H9a2 2 0 0 0-2 2v2h3m0-4v4m0-4h4m-4 4h4m0-4h1a2 2 0 0 1 2 2v2h-3m0-4v4" stroke="var(--icon-stroke)" stroke-width="var(--icon-stroke-width)" stroke-linecap="round"/></symbol><symbol fill="none" viewBox="0 0 24 24" id="icon-search" xmlns="http://www.w3.org/2000/svg"><path d="M14.95 14.95a7 7 0 1 0-9.9-9.9 7 7 0 0 0 9.9 9.9Zm0 0L21 21" stroke="var(--icon-stroke)" stroke-width="var(--icon-stroke-width)" stroke-linecap="round" stroke-linejoin="round"/></symbol><symbol fill="none" viewBox="0 0 24 24" id="icon-settings" xmlns="http://www.w3.org/2000/svg"><path d="M16 6a2 2 0 1 1-4 0m4 0a2 2 0 1 0-4 0m4 0h4m-8 0H4m6 6a2 2 0 1 1-4 0m4 0a2 2 0 1 0-4 0m4 0h10M6 12H4m15 6a2 2 0 1 1-4 0m4 0a2 2 0 1 0-4 0m4 0h1m-5 0H4" stroke="var(--icon-stroke)" stroke-width="var(--icon-stroke-width)" stroke-linecap="round" stroke-linejoin="round"/></symbol><symbol fill="none" viewBox="0 0 20 20" id="icon-sm-chevron-down" xmlns="http://www.w3.org/2000/svg"><path d="m6 8 4 4 4-4" stroke="var(--icon-stroke)" stroke-width="var(--icon-stroke-width)" stroke-linecap="round" stroke-linejoin="round"/></symbol><symbol fill="none" viewBox="0 0 20 20" id="icon-sm-chevron-left" xmlns="http://www.w3.org/2000/svg"><path d="m12 14-4-4 4-4" stroke="var(--icon-stroke)" stroke-width="var(--icon-stroke-width)" stroke-linecap="round" stroke-linejoin="round"/></symbol><symbol fill="none" viewBox="0 0 20 20" id="icon-sm-chevron-right" xmlns="http://www.w3.org/2000/svg"><path d="m8 14 4-4-4-4" stroke="var(--icon-stroke)" stroke-width="var(--icon-stroke-width)" stroke-linecap="round" stroke-linejoin="round"/></symbol><symbol fill="none" viewBox="0 0 20 20" id="icon-sm-chevron-up" xmlns="http://www.w3.org/2000/svg"><path d="m6 12 4-4 4 4" stroke="var(--icon-stroke)" stroke-width="var(--icon-stroke-width)" stroke-linecap="round" stroke-linejoin="round"/></symbol><symbol fill="none" viewBox="0 0 20 20" id="icon-sm-chevron-up-down" xmlns="http://www.w3.org/2000/svg"><path d="m6 12 4 4 4-4M6 8l4-4 4 4" stroke="var(--icon-stroke)" stroke-width="var(--icon-stroke-width)" stroke-linecap="round" stroke-linejoin="round"/></symbol><symbol fill="none" viewBox="0 0 20 20" id="icon-sm-lock" xmlns="http://www.w3.org/2000/svg"><path d="M13 9V6a3 3 0 1 0-6 0v3m-1 8h8a2 2 0 0 0 2-2v-4a2 2 0 0 0-2-2H6a2 2 0 0 0-2 2v4a2 2 0 0 0 2 2Zm5-4a1 1 0 1 1-2 0 1 1 0 0 1 2 0Z" stroke="var(--icon-stroke)" stroke-width="var(--icon-stroke-width)"/></symbol><symbol fill="none" viewBox="0 0 20 20" id="icon-sm-x-mark" xmlns="http://www.w3.org/2000/svg"><path d="M15 5 5 15M5 5l10 10" stroke="var(--icon-stroke)" stroke-width="var(--icon-stroke-width)" stroke-linecap="round" stroke-linejoin="round"/></symbol><symbol fill="none" viewBox="0 0 24 24" id="icon-speed" xmlns="http://www.w3.org/2000/svg"><path d="m12.5 13.5 3-3M21 14c0 1.85-.558 3.57-1.515 5H4.514A9 9 0 1 1 21 14Zm-8 0a1 1 0 1 1-2 0 1 1 0 0 1 2 0Z" stroke="var(--icon-stroke)" stroke-width="var(--icon-stroke-width)" stroke-linecap="round" stroke-linejoin="round"/></symbol><symbol fill="none" viewBox="0 0 24 24" id="icon-star" xmlns="http://www.w3.org/2000/svg"><path d="m12 17.75-6.172 3.245 1.179-6.873-5-4.867 6.9-1 3.086-6.253 3.086 6.253 6.9 1-5 4.867 1.179 6.873L12 17.75Z" stroke="var(--icon-stroke)" stroke-width="var(--icon-stroke-width)" stroke-linecap="round" stroke-linejoin="round"/></symbol><symbol fill="none" viewBox="0 0 24 24" id="icon-success" xmlns="http://www.w3.org/2000/svg"><path d="m9 12 2 2 4-4m6 2a9 9 0 1 1-18 0 9 9 0 0 1 18 0Z" stroke="var(--icon-stroke)" stroke-width="var(--icon-stroke-width)" stroke-linecap="round" stroke-linejoin="round"/></symbol><symbol fill="none" viewBox="0 0 24 24" id="icon-support" xmlns="http://www.w3.org/2000/svg"><path d="M4 14v-3a8 8 0 1 1 16 0v3m-2 7h-5m-9-8a2 2 0 0 1 2-2h1a2 2 0 0 1 2 2v3a2 2 0 0 1-2 2H6a2 2 0 0 1-2-2v-3Zm11 0a2 2 0 0 1 2-2h1a2 2 0 0 1 2 2v3a2 2 0 0 1-2 2h-1a2 2 0 0 1-2-2v-3Z" stroke="var(--icon-stroke)" stroke-width="var(--icon-stroke-width)" stroke-linecap="round" stroke-linejoin="round"/></symbol><symbol fill="none" viewBox="0 0 24 24" id="icon-table" xmlns="http://www.w3.org/2000/svg"><path d="M3 12v5a2 2 0 0 0 2 2h7m-9-7V7a2 2 0 0 1 2-2h7m-9 7h18m0 0V7a2 2 0 0 0-2-2h-7m9 7v5a2 2 0 0 1-2 2h-7m0-14v14" stroke="var(--icon-stroke)" stroke-width="var(--icon-stroke-width)"/></symbol><symbol fill="none" viewBox="0 0 24 24" id="icon-user" xmlns="http://www.w3.org/2000/svg"><path d="M6 21v-2a4 4 0 0 1 4-4h4a4 4 0 0 1 4 4v2M16 7a4 4 0 1 1-8 0 4 4 0 0 1 8 0Z" stroke="var(--icon-stroke)" stroke-width="var(--icon-stroke-width)" stroke-linecap="round" stroke-linejoin="round"/></symbol></svg>