<svg xmlns="http://www.w3.org/2000/svg" xmlns:xlink="http://www.w3.org/1999/xlink"><symbol fill="none" viewBox="0 0 24 24" id="icon-award" xmlns="http://www.w3.org/2000/svg"><path d="M8 5V3h8v2M8 5H3v1a4 4 0 0 0 4 4h1m0-5v5m0 0v0a4 4 0 0 0 4 4v0m4-9h5v1a4 4 0 0 1-4 4h-1m0-5v5m0 0v0a4 4 0 0 1-4 4v0m0 0v7m0 0H8m4 0h4" stroke="var(--icon-stroke)" stroke-width="var(--icon-stroke-width)" stroke-linecap="round" stroke-linejoin="round"/></symbol><symbol fill="none" viewBox="0 0 24 24" id="icon-bitcoin" xmlns="http://www.w3.org/2000/svg"><path d="M9 6v6m0-6H7m2 0h1m-1 6h5a3 3 0 1 0 0-6m-5 6h6a3 3 0 1 1 0 6h-1m-5-6v6m5-12h-4m4 0V4M9 18H7m2 0h1m0 0v2m0-2h4m0 0v2M10 6V4" stroke="var(--icon-stroke)" stroke-width="var(--icon-stroke-width)" stroke-linecap="round"/></symbol><symbol fill="none" viewBox="0 0 24 24" id="icon-candles" xmlns="http://www.w3.org/2000/svg"><path d="M12 6h-1a1 1 0 0 0-1 1v10a1 1 0 0 0 1 1h1m0-12h1a1 1 0 0 1 1 1v10a1 1 0 0 1-1 1h-1m0-12V3m0 15v3m-7-8H4a1 1 0 0 0-1 1v3a1 1 0 0 0 1 1h1m0-5h1a1 1 0 0 1 1 1v3a1 1 0 0 1-1 1H5m0-5v-3m0 8v3M19 6h-1a1 1 0 0 0-1 1v3a1 1 0 0 0 1 1h1m0-5h1a1 1 0 0 1 1 1v3a1 1 0 0 1-1 1h-1m0-5V3m0 8v3" stroke="var(--icon-stroke)" stroke-width="var(--icon-stroke-width)" stroke-linecap="round"/></symbol><symbol fill="none" viewBox="0 0 24 24" id="icon-chart-line" xmlns="http://www.w3.org/2000/svg"><path d="M3 3v16h4m14 0h-2M7 19v2m0-2h4m0 0v2m0-2h4m0 0v2m0-2h4m0 0v2M21 5l-7 7-3-3-4 4m14-8h-3m3 0v3" stroke="var(--icon-stroke)" stroke-width="var(--icon-stroke-width)" stroke-linecap="round" stroke-linejoin="round"/></symbol><symbol fill="none" viewBox="0 0 24 24" id="icon-chart-treemap" xmlns="http://www.w3.org/2000/svg"><path d="M14 4h4a2 2 0 0 1 2 2v8M14 4H6a2 2 0 0 0-2 2v8M14 4v10m0 0h6m-6 0v6m0-6H9m11 0v4a2 2 0 0 1-2 2h-4M4 14v4a2 2 0 0 0 2 2h3m-5-6h5m5 6H9m0-6v6" stroke="var(--icon-stroke)" stroke-width="var(--icon-stroke-width)"/></symbol><symbol fill="none" viewBox="0 0 24 24" id="icon-crown" xmlns="http://www.w3.org/2000/svg"><path d="m12 6 4 6 5-4-2 10H5L3 8l5 4 4-6Z" stroke="var(--icon-stroke)" stroke-width="var(--icon-stroke-width)" stroke-linecap="round" stroke-linejoin="round"/></symbol><symbol fill="none" viewBox="0 0 24 24" id="icon-grid-4x4" xmlns="http://www.w3.org/2000/svg"><path d="M3 5a2 2 0 0 1 2-2h3a2 2 0 0 1 2 2v3a2 2 0 0 1-2 2H5a2 2 0 0 1-2-2V5ZM3 16a2 2 0 0 1 2-2h3a2 2 0 0 1 2 2v3a2 2 0 0 1-2 2H5a2 2 0 0 1-2-2v-3ZM14 5a2 2 0 0 1 2-2h3a2 2 0 0 1 2 2v3a2 2 0 0 1-2 2h-3a2 2 0 0 1-2-2V5ZM14 16a2 2 0 0 1 2-2h3a2 2 0 0 1 2 2v3a2 2 0 0 1-2 2h-3a2 2 0 0 1-2-2v-3Z" stroke="var(--icon-stroke)" stroke-width="var(--icon-stroke-width)"/></symbol><symbol fill="none" viewBox="0 0 24 24" id="icon-home" xmlns="http://www.w3.org/2000/svg"><path d="m21 11-2-1.778M3 11l2-1.778m0 0L12 3l7 6.222m-14 0V20a1 1 0 0 0 1 1h4m9-11.778V20a1 1 0 0 1-1 1h-4m5-11.778V5m-9 16v-7h4v7m-4 0h4" stroke="var(--icon-stroke)" stroke-width="var(--icon-stroke-width)" stroke-linecap="round" stroke-linejoin="round"/></symbol><symbol fill="none" viewBox="0 0 24 24" id="icon-money" xmlns="http://www.w3.org/2000/svg"><path d="M18 12h.01M6 12h.01M15 12a3 3 0 1 1-6 0 3 3 0 0 1 6 0ZM5 6h14a2 2 0 0 1 2 2v8a2 2 0 0 1-2 2H5a2 2 0 0 1-2-2V8a2 2 0 0 1 2-2Z" stroke="var(--icon-stroke)" stroke-width="var(--icon-stroke-width)" stroke-linecap="round" stroke-linejoin="round"/></symbol><symbol fill="none" viewBox="0 0 24 24" id="icon-more" xmlns="http://www.w3.org/2000/svg"><path d="M5 13a1 1 0 1 0 0-2 1 1 0 0 0 0 2ZM12 13a1 1 0 1 0 0-2 1 1 0 0 0 0 2ZM19 13a1 1 0 1 0 0-2 1 1 0 0 0 0 2Z" stroke="var(--icon-stroke)" stroke-width="var(--icon-stroke-width)" stroke-linecap="round" stroke-linejoin="round"/></symbol><symbol fill="none" viewBox="0 0 24 24" id="icon-news" xmlns="http://www.w3.org/2000/svg"><path d="M16 6h3a1 1 0 0 1 1 1v11a2 2 0 0 1-2 2" stroke="var(--icon-stroke)" stroke-width="var(--icon-stroke-width)"/><path d="M8 8h4m-4 4h4m-4 4h4" stroke="var(--icon-stroke)" stroke-width="var(--icon-stroke-width)" stroke-linecap="round"/><path d="M16 5a1 1 0 0 0-1-1H5a1 1 0 0 0-1 1v12a3 3 0 0 0 3 3h11a2 2 0 0 1-2-2V5Z" stroke="var(--icon-stroke)" stroke-width="var(--icon-stroke-width)"/></symbol><symbol fill="none" viewBox="0 0 24 24" id="icon-plug" xmlns="http://www.w3.org/2000/svg"><g clip-path="url(#ala)"><path d="m10.293 5.222-4.95 4.95a4 4 0 0 0 0 5.656l1.414 1.415m3.536-12.021L8.879 3.808l2.828 2.828m-1.414-1.414 1.414 1.414m7.071 7.071-4.95 4.95a4 4 0 0 1-5.657 0l-1.414-1.414m12.021-3.536 1.414 1.414m-1.414-1.414-1.414-1.414m-5.657-5.657 3.536-3.535m-3.536 3.535 5.657 5.657m0 0 3.535-3.536M6.758 17.243l-3.95 3.95" stroke="var(--icon-stroke)" stroke-width="var(--icon-stroke-width)" stroke-linecap="round" stroke-linejoin="round"/></g><defs><clipPath id="ala"><path fill="#fff" d="M0 0h24v24H0z"/></clipPath></defs></symbol><symbol fill="none" viewBox="0 0 24 24" id="icon-robot" xmlns="http://www.w3.org/2000/svg"><path d="M12 7H5a2 2 0 0 0-2 2v10a2 2 0 0 0 2 2h14a2 2 0 0 0 2-2V9a2 2 0 0 0-2-2h-7Zm0 0V3M8 13h.01M16 13h.01M10 17H9a2 2 0 0 0-2 2v2h3m0-4v4m0-4h4m-4 4h4m0-4h1a2 2 0 0 1 2 2v2h-3m0-4v4" stroke="var(--icon-stroke)" stroke-width="var(--icon-stroke-width)" stroke-linecap="round"/></symbol><symbol fill="none" viewBox="0 0 24 24" id="icon-search" xmlns="http://www.w3.org/2000/svg"><path d="M14.95 14.95a7 7 0 1 0-9.9-9.9 7 7 0 0 0 9.9 9.9Zm0 0L21 21" stroke="var(--icon-stroke)" stroke-width="var(--icon-stroke-width)" stroke-linecap="round" stroke-linejoin="round"/></symbol><symbol fill="none" viewBox="0 0 20 20" id="icon-sm-chevron-down" xmlns="http://www.w3.org/2000/svg"><path d="m6 8 4 4 4-4" stroke="var(--icon-stroke)" stroke-width="var(--icon-stroke-width)" stroke-linecap="round" stroke-linejoin="round"/></symbol><symbol fill="none" viewBox="0 0 20 20" id="icon-sm-chevron-up" xmlns="http://www.w3.org/2000/svg"><path d="m6 12 4-4 4 4" stroke="var(--icon-stroke)" stroke-width="var(--icon-stroke-width)" stroke-linecap="round" stroke-linejoin="round"/></symbol><symbol fill="none" viewBox="0 0 20 20" id="icon-sm-chevron-up-down" xmlns="http://www.w3.org/2000/svg"><path d="m6 12 4 4 4-4M6 8l4-4 4 4" stroke="var(--icon-stroke)" stroke-width="var(--icon-stroke-width)" stroke-linecap="round" stroke-linejoin="round"/></symbol><symbol fill="none" viewBox="0 0 24 24" id="icon-speed" xmlns="http://www.w3.org/2000/svg"><path d="m12.5 13.5 3-3M21 14c0 1.85-.558 3.57-1.515 5H4.514A9 9 0 1 1 21 14Zm-8 0a1 1 0 1 1-2 0 1 1 0 0 1 2 0Z" stroke="var(--icon-stroke)" stroke-width="var(--icon-stroke-width)" stroke-linecap="round" stroke-linejoin="round"/></symbol><symbol fill="none" viewBox="0 0 24 24" id="icon-star" xmlns="http://www.w3.org/2000/svg"><path d="m12 17.75-6.172 3.245 1.179-6.873-5-4.867 6.9-1 3.086-6.253 3.086 6.253 6.9 1-5 4.867 1.179 6.873L12 17.75Z" stroke="var(--icon-stroke)" stroke-width="var(--icon-stroke-width)" stroke-linecap="round" stroke-linejoin="round"/></symbol><symbol fill="none" viewBox="0 0 24 24" id="icon-success" xmlns="http://www.w3.org/2000/svg"><path d="m9 12 2 2 4-4m6 2a9 9 0 1 1-18 0 9 9 0 0 1 18 0Z" stroke="var(--icon-stroke)" stroke-width="var(--icon-stroke-width)" stroke-linecap="round" stroke-linejoin="round"/></symbol><symbol fill="none" viewBox="0 0 24 24" id="icon-support" xmlns="http://www.w3.org/2000/svg"><path d="M4 14v-3a8 8 0 1 1 16 0v3m-2 7h-5m-9-8a2 2 0 0 1 2-2h1a2 2 0 0 1 2 2v3a2 2 0 0 1-2 2H6a2 2 0 0 1-2-2v-3Zm11 0a2 2 0 0 1 2-2h1a2 2 0 0 1 2 2v3a2 2 0 0 1-2 2h-1a2 2 0 0 1-2-2v-3Z" stroke="var(--icon-stroke)" stroke-width="var(--icon-stroke-width)" stroke-linecap="round" stroke-linejoin="round"/></symbol><symbol fill="none" viewBox="0 0 24 24" id="icon-table" xmlns="http://www.w3.org/2000/svg"><path d="M3 12v5a2 2 0 0 0 2 2h7m-9-7V7a2 2 0 0 1 2-2h7m-9 7h18m0 0V7a2 2 0 0 0-2-2h-7m9 7v5a2 2 0 0 1-2 2h-7m0-14v14" stroke="var(--icon-stroke)" stroke-width="var(--icon-stroke-width)"/></symbol><symbol fill="none" viewBox="0 0 24 24" id="icon-user" xmlns="http://www.w3.org/2000/svg"><path d="M6 21v-2a4 4 0 0 1 4-4h4a4 4 0 0 1 4 4v2M16 7a4 4 0 1 1-8 0 4 4 0 0 1 8 0Z" stroke="var(--icon-stroke)" stroke-width="var(--icon-stroke-width)" stroke-linecap="round" stroke-linejoin="round"/></symbol></svg>