<svg width="177" height="56" viewBox="0 0 177 56" fill="none" xmlns="http://www.w3.org/2000/svg">
<path d="M53.614 24.182C52.1393 24.182 50.9167 23.6967 49.946 22.726C48.9753 21.746 48.49 20.5373 48.49 19.1C48.49 17.6627 48.9753 16.4587 49.946 15.488C50.9167 14.508 52.1393 14.018 53.614 14.018C54.5007 14.018 55.3173 14.228 56.064 14.648C56.82 15.068 57.408 15.6373 57.828 16.356L56.428 17.168C56.1667 16.6827 55.784 16.3 55.28 16.02C54.7853 15.7307 54.23 15.586 53.614 15.586C52.5687 15.586 51.7193 15.9173 51.066 16.58C50.422 17.2427 50.1 18.0827 50.1 19.1C50.1 20.1173 50.422 20.9573 51.066 21.62C51.7193 22.2827 52.5687 22.614 53.614 22.614C54.23 22.614 54.79 22.474 55.294 22.194C55.798 21.9047 56.176 21.5173 56.428 21.032L57.828 21.83C57.4173 22.5487 56.834 23.1227 56.078 23.552C55.3313 23.972 54.51 24.182 53.614 24.182ZM67.8315 24L65.7595 20.43H63.8555V24H62.2455V14.2H66.1655C67.0429 14.2 67.7849 14.508 68.3915 15.124C69.0075 15.7307 69.3155 16.4727 69.3155 17.35C69.3155 17.9753 69.1335 18.5493 68.7695 19.072C68.4149 19.5853 67.9482 19.9587 67.3695 20.192L69.5955 24H67.8315ZM63.8555 15.712V18.988H66.1655C66.5949 18.988 66.9589 18.8293 67.2575 18.512C67.5562 18.1947 67.7055 17.8073 67.7055 17.35C67.7055 16.8927 67.5562 16.5053 67.2575 16.188C66.9589 15.8707 66.5949 15.712 66.1655 15.712H63.8555ZM81.17 14.2L77.754 20.108V24H76.144V20.108L72.728 14.2H74.562L76.956 18.54L79.336 14.2H81.17ZM88.916 14.2C89.84 14.2 90.61 14.508 91.226 15.124C91.8513 15.74 92.164 16.5053 92.164 17.42C92.164 18.3253 91.8513 19.0907 91.226 19.716C90.61 20.332 89.84 20.64 88.916 20.64H86.914V24H85.304V14.2H88.916ZM88.916 19.128C89.392 19.128 89.784 18.9693 90.092 18.652C90.4 18.3253 90.554 17.9147 90.554 17.42C90.554 16.9253 90.4 16.5193 90.092 16.202C89.784 15.8753 89.392 15.712 88.916 15.712H86.914V19.128H88.916ZM102.807 14.2V15.74H100.049V24H98.4387V15.74H95.6667V14.2H102.807ZM114.707 22.712C113.727 23.692 112.527 24.182 111.109 24.182C109.69 24.182 108.486 23.692 107.497 22.712C106.517 21.7227 106.027 20.5187 106.027 19.1C106.027 17.6813 106.517 16.482 107.497 15.502C108.486 14.5127 109.69 14.018 111.109 14.018C112.527 14.018 113.727 14.5127 114.707 15.502C115.696 16.482 116.191 17.6813 116.191 19.1C116.191 20.5187 115.696 21.7227 114.707 22.712ZM108.631 21.62C109.303 22.2827 110.129 22.614 111.109 22.614C112.089 22.614 112.91 22.2827 113.573 21.62C114.245 20.948 114.581 20.108 114.581 19.1C114.581 18.092 114.245 17.2567 113.573 16.594C112.91 15.922 112.089 15.586 111.109 15.586C110.129 15.586 109.303 15.922 108.631 16.594C107.968 17.2567 107.637 18.092 107.637 19.1C107.637 20.108 107.968 20.948 108.631 21.62ZM152.164 23.86C151.959 24.0653 151.711 24.168 151.422 24.168C151.133 24.168 150.885 24.0653 150.68 23.86C150.475 23.6547 150.372 23.4073 150.372 23.118C150.372 22.8287 150.47 22.5813 150.666 22.376C150.871 22.1707 151.123 22.068 151.422 22.068C151.711 22.068 151.959 22.1707 152.164 22.376C152.369 22.5813 152.472 22.8287 152.472 23.118C152.472 23.4073 152.369 23.6547 152.164 23.86ZM162.144 17H163.656V24H162.144V22.992C161.575 23.7853 160.758 24.182 159.694 24.182C158.733 24.182 157.911 23.8273 157.23 23.118C156.549 22.3993 156.208 21.5267 156.208 20.5C156.208 19.464 156.549 18.5913 157.23 17.882C157.911 17.1727 158.733 16.818 159.694 16.818C160.758 16.818 161.575 17.21 162.144 17.994V17ZM158.35 22.11C158.77 22.53 159.297 22.74 159.932 22.74C160.567 22.74 161.094 22.53 161.514 22.11C161.934 21.6807 162.144 21.144 162.144 20.5C162.144 19.856 161.934 19.324 161.514 18.904C161.094 18.4747 160.567 18.26 159.932 18.26C159.297 18.26 158.77 18.4747 158.35 18.904C157.93 19.324 157.72 19.856 157.72 20.5C157.72 21.144 157.93 21.6807 158.35 22.11ZM169.926 15.67C169.74 15.8567 169.516 15.95 169.254 15.95C168.993 15.95 168.764 15.8567 168.568 15.67C168.382 15.474 168.288 15.2453 168.288 14.984C168.288 14.7227 168.382 14.4987 168.568 14.312C168.755 14.116 168.984 14.018 169.254 14.018C169.525 14.018 169.754 14.116 169.94 14.312C170.127 14.4987 170.22 14.7227 170.22 14.984C170.22 15.2453 170.122 15.474 169.926 15.67ZM168.498 24V17H170.01V24H168.498Z" fill="white" fill-opacity="0.87"/>
<path d="M126.754 24L126.068 22.026H121.896L121.21 24H119.46L123.016 14.2H124.948L128.49 24H126.754ZM122.428 20.514H125.536L123.982 16.09L122.428 20.514ZM136.236 14.2C137.16 14.2 137.93 14.508 138.546 15.124C139.171 15.74 139.484 16.5053 139.484 17.42C139.484 18.3253 139.171 19.0907 138.546 19.716C137.93 20.332 137.16 20.64 136.236 20.64H134.234V24H132.624V14.2H136.236ZM136.236 19.128C136.712 19.128 137.104 18.9693 137.412 18.652C137.72 18.3253 137.874 17.9147 137.874 17.42C137.874 16.9253 137.72 16.5193 137.412 16.202C137.104 15.8753 136.712 15.712 136.236 15.712H134.234V19.128H136.236ZM143.962 14.2H145.572V24H143.962V14.2Z" fill="#AD96F8"/>
<path d="M10 35L10 12.6479L4.06969 14.5823C2.83528 14.9849 2 16.136 2 17.4344V35H10Z" fill="#FF0000"/>
<path d="M10 35L10 12.6479L4.06969 14.5823C2.83528 14.9849 2 16.136 2 17.4344V35H10Z" fill="url(#paint0_linear_12251_27)"/>
<path d="M10 35L10 12.6479L4.06969 14.5823C2.83528 14.9849 2 16.136 2 17.4344V35H10Z" fill="url(#paint1_linear_12251_27)"/>
<path d="M29.1871 39.1772L25.5311 44.2287C24.7672 45.2843 23.4093 45.726 22.1705 45.322L4.06968 39.4177C2.83528 39.0151 2 37.8641 2 36.5656V30.3256L29.1871 39.1772Z" fill="url(#paint2_linear_12251_27)"/>
<path d="M29.1871 39.1772L25.5311 44.2287C24.7672 45.2843 23.4093 45.726 22.1705 45.322L4.06968 39.4177C2.83528 39.0151 2 37.8641 2 36.5656V30.3256L29.1871 39.1772Z" fill="url(#paint3_linear_12251_27)"/>
<path d="M35.5566 30.3762L30.0886 24.2247L16.301 43.4074L22.1706 45.322C23.4094 45.726 24.7673 45.2843 25.5312 44.2287L35.5566 30.3762Z" fill="url(#paint4_linear_12251_27)"/>
<path d="M35.5566 30.3762L30.0886 24.2247L16.301 43.4074L22.1706 45.322C23.4094 45.726 24.7673 45.2843 25.5312 44.2287L35.5566 30.3762Z" fill="url(#paint5_linear_12251_27)"/>
<path d="M18.1292 13L32.9837 33.9314L36.7272 28.7589C37.4868 27.7093 37.4868 26.2907 36.7272 25.2411L27.868 13H18.1292Z" fill="url(#paint6_linear_12251_27)"/>
<path d="M18.1292 13L32.9837 33.9314L36.7272 28.7589C37.4868 27.7093 37.4868 26.2907 36.7272 25.2411L27.868 13H18.1292Z" fill="url(#paint7_linear_12251_27)"/>
<path d="M7 21.96L29.209 14.8531L25.5311 9.77127C24.7672 8.71572 23.4093 8.27398 22.1705 8.67804L7 13.6264V21.96Z" fill="url(#paint8_linear_12251_27)"/>
<path d="M7 21.96L29.209 14.8531L25.5311 9.77127C24.7672 8.71572 23.4093 8.27398 22.1705 8.67804L7 13.6264V21.96Z" fill="url(#paint9_linear_12251_27)"/>
<path d="M10 24L10 12.6479L4.06969 14.5823C2.83528 14.9849 2 16.136 2 17.4344V24H10Z" fill="url(#paint10_linear_12251_27)"/>
<defs>
<linearGradient id="paint0_linear_12251_27" x1="5.86852" y1="13.6738" x2="6.07452" y2="27.2319" gradientUnits="userSpaceOnUse">
<stop stop-color="#AD96F8"/>
<stop offset="1" stop-color="#A1C0F9"/>
</linearGradient>
<linearGradient id="paint1_linear_12251_27" x1="7" y1="26" x2="6.3171" y2="31.5996" gradientUnits="userSpaceOnUse">
<stop stop-opacity="0"/>
<stop offset="0.665" stop-color="#0C0E10" stop-opacity="0.1"/>
<stop offset="1" stop-color="#191B1F" stop-opacity="0.2"/>
</linearGradient>
<linearGradient id="paint2_linear_12251_27" x1="2.40423" y1="34.7553" x2="19.4855" y2="39.3867" gradientUnits="userSpaceOnUse">
<stop stop-color="#C0A1F9"/>
<stop offset="1" stop-color="#9EE7F9"/>
</linearGradient>
<linearGradient id="paint3_linear_12251_27" x1="13" y1="37.5" x2="17.6138" y2="40.3134" gradientUnits="userSpaceOnUse">
<stop stop-opacity="0"/>
<stop offset="0.665" stop-color="#0C0F0F" stop-opacity="0.099"/>
<stop offset="1" stop-color="#191E1F" stop-opacity="0.2"/>
</linearGradient>
<linearGradient id="paint4_linear_12251_27" x1="19.7003" y1="44.9002" x2="28.3428" y2="31.947" gradientUnits="userSpaceOnUse">
<stop stop-color="#9EE7F9"/>
<stop offset="1" stop-color="#9FF9E7"/>
</linearGradient>
<linearGradient id="paint5_linear_12251_27" x1="28" y1="34" x2="29.7866" y2="31.3558" gradientUnits="userSpaceOnUse">
<stop stop-opacity="0"/>
<stop offset="0.67" stop-color="#0D100F" stop-opacity="0.05"/>
<stop offset="1" stop-color="#191F1E" stop-opacity="0.1"/>
</linearGradient>
<linearGradient id="paint6_linear_12251_27" x1="26.8644" y1="19.1831" x2="34.8629" y2="31.5595" gradientUnits="userSpaceOnUse">
<stop stop-color="#A1C0F9"/>
<stop offset="1" stop-color="#9FF9E7"/>
</linearGradient>
<linearGradient id="paint7_linear_12251_27" x1="23.5" y1="17" x2="26.0604" y2="23.6688" gradientUnits="userSpaceOnUse">
<stop stop-color="#191B1F" stop-opacity="0.2"/>
<stop offset="0.33" stop-color="#0E0F11" stop-opacity="0.1"/>
<stop offset="1" stop-opacity="0"/>
</linearGradient>
<linearGradient id="paint8_linear_12251_27" x1="13.8228" y1="16.4404" x2="27.7213" y2="12.0485" gradientUnits="userSpaceOnUse">
<stop stop-color="#AD96F8"/>
<stop offset="1" stop-color="#A1C0F9"/>
</linearGradient>
<linearGradient id="paint9_linear_12251_27" x1="10" y1="16" x2="16.0081" y2="15.051" gradientUnits="userSpaceOnUse">
<stop stop-color="#1A191F" stop-opacity="0.2"/>
<stop offset="0.33" stop-color="#0D0C0F" stop-opacity="0.098"/>
<stop offset="1" stop-opacity="0"/>
</linearGradient>
<linearGradient id="paint10_linear_12251_27" x1="5.86852" y1="13.6738" x2="6.07452" y2="27.2319" gradientUnits="userSpaceOnUse">
<stop stop-color="#AD96F8"/>
<stop offset="1" stop-color="#A1C0F9"/>
</linearGradient>
</defs>
</svg>
