<svg width="100" height="100" viewBox="0 0 100 100" fill="none" xmlns="http://www.w3.org/2000/svg" xmlns:xlink="http://www.w3.org/1999/xlink">
 <path d="M50 100C77.6142 100 100 77.6142 100 50C100 22.3858 77.6142 0 50 0C22.3858 0 0 22.3858 0 50C0 77.6142 22.3858 100 50 100Z" fill="white">
 </path>
 <path d="M50 19.719V39.5566L53.5963 48.4893L50 45.4731V54.9858C50 54.9858 50 54.9858 50.116 55.1018C55.9165 62.2944 63.109 68.3269 71.2297 72.7353L50 19.719Z" fill="url(#paint0_linear_1718_21267)">
 </path>
 <path d="M49.9992 19.719V39.5566L46.4029 48.4893L49.9992 45.4731V54.9858C49.9992 54.9858 49.9992 54.9858 49.8832 55.1018C44.0828 62.2944 36.8902 68.3269 28.7695 72.7353L49.9992 19.719Z" fill="url(#paint1_linear_1718_21267)">
 </path>
 <path d="M50.0013 67.2812C52.6923 67.2812 54.8737 65.0997 54.8737 62.4088C54.8737 59.7178 52.6923 57.5364 50.0013 57.5364C47.3104 57.5364 45.1289 59.7178 45.1289 62.4088C45.1289 65.0997 47.3104 67.2812 50.0013 67.2812Z" fill="#F5CC02">
 </path>
 <defs>
  <linearGradient id="paint0_linear_1718_21267" x1="60.5749" y1="19.5698" x2="60.5749" y2="73.3551" gradientUnits="userSpaceOnUse">
   <stop stop-color="#000749">
   </stop>
   <stop offset="1" stop-color="#000749" stop-opacity="0.6">
   </stop>
  </linearGradient>
  <linearGradient id="paint1_linear_1718_21267" x1="39.3542" y1="72.9803" x2="39.3542" y2="20.1965" gradientUnits="userSpaceOnUse">
   <stop stop-color="#000749">
   </stop>
   <stop offset="1" stop-color="#000749" stop-opacity="0.6">
   </stop>
  </linearGradient>
 </defs>
</svg>