<svg width="48" height="48" viewBox="0 0 48 48" fill="none" xmlns="http://www.w3.org/2000/svg">
<g clip-path="url(#clip0_13464_2341)">
<circle cx="24" cy="24" r="24" fill="#F23738"/>
<path fill-rule="evenodd" clip-rule="evenodd" d="M17.0272 34H12.3192C11.3299 34 10.8412 34 10.5432 33.8083C10.2214 33.5983 10.0248 33.2506 10.0009 32.8669C9.98302 32.5133 10.2274 32.0815 10.7161 31.2182L22.3408 10.6052C22.8355 9.72991 23.0858 9.29225 23.4016 9.13039C23.7413 8.95654 24.1466 8.95654 24.4863 9.13039C24.8021 9.29225 25.0524 9.72991 25.5471 10.6052L27.949 14.8233C28.4833 15.7624 28.7542 16.2386 28.8725 16.7384C29.0036 17.2839 29.0036 17.8595 28.8725 18.405C28.7533 18.9086 28.4851 19.3883 27.9428 20.3415L21.8366 31.2002L21.8208 31.228C21.283 32.1748 21.0105 32.6547 20.6328 33.0167C20.2216 33.4125 19.7269 33.7001 19.1846 33.8622C18.6899 34 18.1357 34 17.0272 34ZM28.9166 34H35.6627C36.6579 34 37.1586 34 37.4568 33.8024C37.7785 33.5925 37.9811 33.2386 37.9991 32.8552C38.0163 32.513 37.7772 32.098 37.3088 31.2849C37.2927 31.2572 37.2765 31.229 37.2601 31.2003L33.8809 25.385L33.8424 25.3195C33.3676 24.5117 33.1279 24.1038 32.8201 23.9461C32.4806 23.7722 32.081 23.7722 31.7414 23.9461C31.4315 24.108 31.1812 24.5336 30.6866 25.3909L27.3194 31.2063L27.3079 31.2264C26.815 32.0823 26.5687 32.5101 26.5864 32.861C26.6103 33.2448 26.8069 33.5983 27.1287 33.8083C27.4208 34 27.9214 34 28.9166 34Z" fill="white"/>
</g>
<defs>
<clipPath id="clip0_13464_2341">
<rect width="48" height="48" fill="white"/>
</clipPath>
</defs>
</svg>
