<svg width="48" height="48" viewBox="0 0 48 48" fill="none" xmlns="http://www.w3.org/2000/svg">
<g clip-path="url(#clip0_13454_10239)">
<circle cx="24" cy="24.0006" r="24" fill="#ECB70F"/>
<path d="M13.1902 24.0006L13.2075 30.3468L18.5998 33.5198V37.2352L10.0517 32.2218V22.1448L13.1902 24.0006ZM13.1902 17.6545V21.3525L10.0498 19.4948V15.7968L13.1902 13.9391L16.346 15.7968L13.1902 17.6545ZM20.8517 15.7968L23.9921 13.9391L27.1479 15.7968L23.9921 17.6545L20.8517 15.7968Z" fill="white"/>
<path d="M15.4594 29.0314V25.316L18.5998 27.1737V30.8718L15.4594 29.0314ZM20.8517 34.8506L23.9921 36.7083L27.1479 34.8506V38.5487L23.9921 40.4064L20.8517 38.5487V34.8506ZM31.6517 15.7968L34.7921 13.9391L37.9479 15.7968V19.4948L34.7921 21.3525V17.6545L31.6517 15.7968ZM34.7921 30.3468L34.8094 24.0006L37.9498 22.1429V32.2198L29.4017 37.2333V33.5179L34.7921 30.3468Z" fill="white"/>
<path d="M32.5402 29.0314L29.3998 30.8718V27.1737L32.5402 25.316V29.0314Z" fill="white"/>
<path d="M32.5402 18.9698L32.5575 22.6852L27.1498 25.8583V32.2198L24.0094 34.0602L20.869 32.2198V25.8583L15.4613 22.6852V18.9698L18.6152 17.1122L23.9902 20.3006L29.3979 17.1122L32.5537 18.9698H32.5402ZM15.4594 12.6256L23.9921 7.59485L32.5402 12.6256L29.3998 14.4833L23.9921 11.2948L18.5998 14.4833L15.4594 12.6256Z" fill="white"/>
</g>
<defs>
<clipPath id="clip0_13454_10239">
<rect width="48" height="48" fill="white" transform="translate(0 0.000610352)"/>
</clipPath>
</defs>
</svg>
