<svg width="48" height="48" viewBox="0 0 48 48" fill="none" xmlns="http://www.w3.org/2000/svg">
<g clip-path="url(#clip0_13464_2344)">
<circle cx="24" cy="24" r="24" fill="#EED30F"/>
<path d="M12.3187 16.9687C12.3187 16.9687 11.0812 18.5343 11.4937 25.6124C11.4937 25.6124 8.78432 32.5499 9.70307 36.0937C10.6218 39.628 14.2031 39.4499 14.2031 39.4499C14.2031 39.4499 19.9499 44.503 24.3562 40.0499C28.7718 35.5874 20.6812 18.3093 20.6812 18.3093L19.6687 12.3374C19.6687 12.3374 18.5624 13.2093 18.7031 18.9562C18.8437 24.703 16.4531 20.653 16.4531 20.653L12.3187 16.9687Z" fill="#443004"/>
<path d="M12.7781 23.222L11.2593 27.497L10.7062 30.4876C10.7062 30.4876 8.82183 37.1532 16.5937 37.0595C16.5937 37.0595 22.6593 42.4876 26.6156 38.8501L27.675 37.697L29.5125 34.847L32.55 25.7907C32.55 25.7907 31.5843 19.5845 25.4718 17.0157C25.4718 17.0157 24.9656 16.7439 24.0468 17.1095C24.0468 17.1095 21.5156 11.4095 19.9125 12.1032C19.9125 12.1032 18.5343 12.8345 19.725 18.4501L17.5687 19.4157C17.5687 19.4157 15.2062 14.9345 13.0218 15.8345C10.9875 16.6501 12.7781 23.222 12.7781 23.222Z" fill="#F08D10"/>
<path d="M20.6343 14.8968L20.8218 17.3812C20.8218 17.3812 20.9625 18.8062 22.4718 18.3C22.9031 18.1593 23.2781 17.8593 23.2406 17.3718C23.2125 17.0062 22.9593 16.6687 22.7906 16.3593C22.4812 15.7687 22.2281 15.1406 21.8625 14.5687C21.675 14.2781 21.2906 13.6312 20.8687 13.7062C20.8687 13.7062 20.55 13.6124 20.6343 14.8968Z" fill="#F8B694"/>
<path d="M13.9968 17.6906C14.025 17.6719 14.6437 16.8937 15.9281 18.7875C17.2125 20.6812 17.0812 20.4375 17.0812 20.4375C17.0812 20.4375 17.775 21.1969 16.3593 22.1719C16.05 22.3969 15.7125 22.5844 15.3562 22.7344C15.1312 22.8187 14.8968 22.8656 14.6625 22.8656C14.3906 22.8562 14.2687 22.7156 14.2031 22.4625C13.9875 21.6375 13.7437 20.8125 13.6218 19.9687C13.5281 19.3125 13.3406 18.1125 13.9968 17.6906Z" fill="#F8B694"/>
<path d="M28.9219 21.5062C28.9219 21.9562 28.2656 22.3219 27.45 22.3219C26.6344 22.3219 25.9781 21.9562 25.9781 21.5062C25.9781 21.0562 26.6531 20.3906 27.4594 20.3906C28.2656 20.3906 28.9219 21.0562 28.9219 21.5062Z" fill="#FBFBFB"/>
<path d="M20.4333 25.0276C20.8693 24.257 20.821 23.405 20.3253 23.1245C19.8297 22.844 19.0743 23.2412 18.6383 24.0118C18.2022 24.7823 18.2506 25.6344 18.7463 25.9149C19.2419 26.1954 19.9972 25.7981 20.4333 25.0276Z" fill="#FBFBFB"/>
<path d="M22.5187 28.7532L26.5406 26.6625C26.5406 26.6625 31.5468 24.0469 32.7656 26.0625C33.9843 28.0782 32.7656 31.1625 32.7656 31.1625C32.7656 31.1625 32.2406 34.7719 28.5562 35.0907L26.5781 35.3625L24.0468 35.4282C24.0468 35.4282 19.9781 35.6625 16.9875 33.45L16.0406 32.2969C16.0406 32.2969 14.1375 29.6813 15.4687 27.7969C16.8 25.9125 21.3562 28.8282 21.3562 28.8282C21.3562 28.8282 21.9937 29.175 22.5187 28.7532Z" fill="#FBFBFB"/>
<path d="M31.6407 18.3282C32.174 18.3282 32.6063 17.8959 32.6063 17.3626C32.6063 16.8293 32.174 16.397 31.6407 16.397C31.1074 16.397 30.675 16.8293 30.675 17.3626C30.675 17.8959 31.1074 18.3282 31.6407 18.3282Z" fill="#F1232D"/>
<path d="M29.5031 15.9562C30.0364 15.9562 30.4687 15.5238 30.4687 14.9905C30.4687 14.4572 30.0364 14.0249 29.5031 14.0249C28.9698 14.0249 28.5375 14.4572 28.5375 14.9905C28.5375 15.5238 28.9698 15.9562 29.5031 15.9562Z" fill="#F1232D"/>
<path d="M26.0812 15.1969C26.6145 15.1969 27.0469 14.7646 27.0469 14.2313C27.0469 13.698 26.6145 13.2656 26.0812 13.2656C25.5479 13.2656 25.1156 13.698 25.1156 14.2313C25.1156 14.7646 25.5479 15.1969 26.0812 15.1969Z" fill="#F1232D"/>
<path d="M26.8406 7.38745C27.0469 10.2375 26.6344 12.8156 25.9406 12.8156C25.2469 12.8156 24.3281 10.0312 24.3281 7.38745C24.3281 6.29995 24.9 6.12183 25.5938 6.12183C26.2969 6.12183 26.7656 6.29995 26.8406 7.38745Z" fill="#F1232D"/>
<path d="M33.2344 9.15948C32.1844 11.8126 30.6937 13.9595 30.075 13.6595C29.4562 13.3595 29.8312 10.4532 30.9844 8.07198C31.4625 7.0876 32.0531 7.18135 32.6719 7.48135C33.2906 7.79073 33.6375 8.14698 33.2344 9.15948Z" fill="#F1232D"/>
<path d="M37.8094 14.3344C35.4938 16.0125 33.0938 17.025 32.7281 16.4344C32.3625 15.8438 34.2469 13.6032 36.4875 12.2063C37.4156 11.6344 37.8656 12.0282 38.2313 12.6094C38.5875 13.2 38.6906 13.6875 37.8094 14.3344Z" fill="#F1232D"/>
<path d="M22.3312 25.95C22.2468 25.9593 22.1624 25.9687 22.0781 25.9781C22.0874 26.0062 22.0968 26.0343 22.0968 26.0718C22.0968 26.3625 21.6374 26.6062 21.0656 26.625C21.0656 26.6531 21.0562 26.6718 21.0656 26.7C21.0937 27.0562 21.7124 27.3 22.4343 27.2437C23.1656 27.1875 23.7374 26.85 23.7093 26.4937C23.6718 26.1375 23.0624 25.8937 22.3312 25.95Z" fill="black"/>
<path d="M27.4125 24.6939C27.3281 24.7032 27.2437 24.7126 27.1594 24.722C27.1687 24.7501 27.1781 24.7782 27.1781 24.8157C27.1781 25.1064 26.7187 25.3501 26.1469 25.3689C26.1469 25.397 26.1375 25.4157 26.1469 25.4439C26.175 25.8001 26.7937 26.0439 27.5156 25.9876C28.2469 25.9314 28.8187 25.5939 28.7906 25.2376C28.7625 24.8814 28.1437 24.6376 27.4125 24.6939Z" fill="black"/>
<path d="M29.0812 26.1843C29.0812 26.1843 27.0656 26.7749 27.1874 27.9093C27.3093 29.0437 29.7374 29.6343 29.7374 29.6343C29.7374 29.6343 30.3937 29.8968 30.7687 29.2687C31.1437 28.6499 31.6968 27.8062 31.5468 26.5968C31.5468 26.5968 31.4999 25.6968 29.0812 26.1843Z" fill="black"/>
</g>
<defs>
<clipPath id="clip0_13464_2344">
<rect width="48" height="48" fill="white"/>
</clipPath>
</defs>
</svg>
