<svg width="48" height="48" viewBox="0 0 48 48" fill="none" xmlns="http://www.w3.org/2000/svg">
<g clip-path="url(#clip0_13454_10241)">
<circle cx="24" cy="24" r="24" fill="#E6BC0F"/>
<path fill-rule="evenodd" clip-rule="evenodd" d="M23.7109 11C25.3724 11 26.2033 11.0002 26.9014 11.0859C32.1417 11.7294 36.2706 15.8583 36.9141 21.0986C36.9998 21.7967 37 22.6276 37 24.2891C37 25.8782 37 26.6731 36.918 27.3408C36.3024 32.3531 32.3531 36.3024 27.3408 36.918C26.6731 37 25.8782 37 24.2891 37H16V26H13V22H16V11H23.7109ZM21 22H27V26H21V32H24.3203C25.8815 32 26.6622 31.9999 27.3086 31.8555C29.5768 31.3485 31.3485 29.5768 31.8555 27.3086C31.9999 26.6622 32 25.8815 32 24.3203C32 22.6286 32.0003 21.7824 31.8438 21.082C31.2945 18.6248 29.3752 16.7055 26.918 16.1562C26.2176 15.9997 25.3714 16 23.6797 16H21V22Z" fill="white"/>
</g>
<defs>
<clipPath id="clip0_13454_10241">
<rect width="48" height="48" fill="white"/>
</clipPath>
</defs>
</svg>
