<svg width="48" height="48" viewBox="0 0 48 48" fill="none" xmlns="http://www.w3.org/2000/svg">
<g clip-path="url(#clip0_12238_10103)">
<path d="M24 48.0003C37.2548 48.0003 48 37.2551 48 24.0003C48 10.7455 37.2548 0.000305176 24 0.000305176C10.7452 0.000305176 0 10.7455 0 24.0003C0 37.2551 10.7452 48.0003 24 48.0003Z" fill="#6ABDF5"/>
<path fill-rule="evenodd" clip-rule="evenodd" d="M12.4879 36.4878C14.8879 40.6503 19.2004 43.144 24.0004 43.144C28.8004 43.144 33.1129 40.6503 35.5129 36.4878C37.9129 32.3253 37.9129 27.3565 35.5129 23.194L25.3879 5.64403C24.7691 4.57528 23.2316 4.57528 22.6129 5.64403L12.4879 23.194C10.0691 27.3565 10.0691 32.3253 12.4879 36.4878ZM21.1504 13.9878L23.3066 10.2378C23.6066 9.71278 24.3941 9.71278 24.6941 10.2378L33.0004 24.6378C34.5191 27.2815 34.8191 30.3378 33.8629 33.1503C33.7691 32.7003 33.6191 32.2315 33.4316 31.7628C32.2879 28.8565 29.6816 26.6253 25.7066 25.1253C22.9691 24.094 21.2254 22.5565 20.5316 20.5878C19.6316 18.0378 20.5879 15.2628 21.1504 13.9878ZM17.4566 20.3628L15.0004 24.6378C13.1254 27.9003 13.1254 31.7815 15.0004 35.044C16.8754 38.3065 20.2504 40.2378 24.0004 40.2378C26.4941 40.2378 28.8191 39.3753 30.6566 37.8565C30.9004 37.2565 31.6316 35.0628 30.7129 32.794C29.8691 30.694 27.8441 29.0253 24.6754 27.8253C21.1129 26.4753 18.7879 24.3565 17.7754 21.544C17.6441 21.1503 17.5504 20.7565 17.4566 20.3628Z" fill="white"/>
</g>
<defs>
<clipPath id="clip0_12238_10103">
<rect width="48" height="48" fill="white" transform="translate(0 0.000305176)"/>
</clipPath>
</defs>
</svg>
