<svg width="48" height="48" viewBox="0 0 48 48" fill="none" xmlns="http://www.w3.org/2000/svg">
<circle cx="24" cy="24" r="24" fill="#F01518"/>
<path d="M39.592 19.6403C38.1124 18.2553 36.0656 16.1403 34.3986 14.6404L34.2999 14.5704C34.1358 14.4368 33.9508 14.332 33.7525 14.2604C29.7329 13.5004 11.0259 9.95543 10.6609 10.0004C10.5586 10.0149 10.4609 10.0525 10.3748 10.1104L10.2811 10.1854C10.1657 10.3042 10.0781 10.4477 10.0247 10.6054L10 10.6704V11.0254V11.0804C12.106 17.0253 20.4213 36.5001 22.0587 41.07C22.1574 41.38 22.3448 41.97 22.695 42H22.7739C22.9613 42 23.7603 40.93 23.7603 40.93C23.7603 40.93 38.0433 23.3702 39.4884 21.5003C39.6754 21.2699 39.8406 21.0222 39.9816 20.7603C40.0176 20.5554 40.0006 20.3445 39.9323 20.1482C39.864 19.952 39.7468 19.777 39.592 19.6403ZM27.4247 21.6853L33.5207 16.5603L37.0964 19.9003L27.4247 21.6853ZM25.0574 21.3503L14.5621 12.6304L31.5429 15.8053L25.0574 21.3503ZM26.0043 23.6352L36.7462 21.8803L24.4655 36.8801L26.0043 23.6352ZM13.1367 13.5004L24.1795 23.0003L22.5815 36.8901L13.1367 13.5004Z" fill="white"/>
</svg>
