<svg width="48" height="48" viewBox="0 0 48 48" fill="none" xmlns="http://www.w3.org/2000/svg">
<path fill-rule="evenodd" clip-rule="evenodd" d="M8.78884 3.20625L0.03676 21.6978C0.00345578 21.7666 -0.00709811 21.8443 0.00664171 21.9195C0.0203815 21.9948 0.0576943 22.0636 0.113123 22.116L23.7504 44.899C23.8175 44.9638 23.907 44.9999 24 44.9999C24.093 44.9999 24.1824 44.9638 24.2496 44.899L47.8869 22.1174C47.9423 22.065 47.9796 21.9962 47.9933 21.9209C48.0071 21.8457 47.9965 21.768 47.9632 21.6992L39.2111 3.20767C39.1829 3.14557 39.1375 3.09296 39.0803 3.05613C39.0231 3.01931 38.9566 2.99982 38.8887 3H9.11409C9.04588 2.99914 8.97887 3.01816 8.92116 3.05476C8.86344 3.09136 8.81749 3.14397 8.78884 3.20625Z" fill="#0CB687"/>
<path fill-rule="evenodd" clip-rule="evenodd" d="M27.0369 23.5967C26.8672 23.6095 25.9904 23.6622 24.0347 23.6622C22.4791 23.6622 21.3747 23.6152 20.9872 23.5967C14.9757 23.3308 10.4886 22.2782 10.4886 21.0179C10.4886 19.7576 14.9757 18.7064 20.9872 18.4362V22.5484C21.3803 22.5769 22.506 22.6437 24.0615 22.6437C25.9282 22.6437 26.8629 22.5655 27.0312 22.5498V18.439C33.03 18.7079 37.5071 19.7605 37.5071 21.0179C37.5071 22.2753 33.0314 23.3279 27.0312 23.5953L27.0369 23.5967ZM27.0369 18.0137V14.3339H35.4085V8.72243H12.6155V14.3339H20.9858V18.0123C14.1824 18.3267 9.06602 19.6822 9.06602 21.3066C9.06602 22.9311 14.1824 24.2852 20.9858 24.601V36.3929H27.0354V24.5967C33.8233 24.2824 38.9312 22.9282 38.9312 21.3052C38.9312 19.6822 33.8275 18.3281 27.0354 18.0123L27.0369 18.0137Z" fill="white"/>
</svg>
